<svg width="54" height="54" viewBox="0 0 54 54" fill="none" xmlns="http://www.w3.org/2000/svg">
<circle cx="27" cy="27" r="27" fill="url(#paint0_linear_2001_566)"/>
<path d="M36.9168 25.5834H28.4167V17.0834C28.4167 16.3014 27.7821 15.6667 27.0001 15.6667C26.2181 15.6667 25.5834 16.3014 25.5834 17.0834V25.5834H17.0834C16.3014 25.5834 15.6667 26.218 15.6667 27C15.6667 27.782 16.3014 28.4167 17.0834 28.4167H25.5834V36.9167C25.5834 37.6987 26.2181 38.3334 27.0001 38.3334C27.7821 38.3334 28.4167 37.6987 28.4167 36.9167V28.4167H36.9168C37.6988 28.4167 38.3334 27.782 38.3334 27C38.3334 26.218 37.6988 25.5834 36.9168 25.5834Z" fill="#F2F3F7"/>
<defs>
<linearGradient id="paint0_linear_2001_566" x1="27" y1="0" x2="27" y2="54" gradientUnits="userSpaceOnUse">
<stop stop-color="#9CD9FF"/>
<stop offset="1" stop-color="#4082E3"/>
</linearGradient>
</defs>
</svg>
