<svg width="54" height="54" viewBox="0 0 54 54" fill="none" xmlns="http://www.w3.org/2000/svg">
<circle cx="27" cy="27" r="27" fill="#4F94FB"/>
<path d="M36.917 25.5834H28.417V17.0834C28.417 16.3014 27.7823 15.6667 27.0003 15.6667C26.2183 15.6667 25.5837 16.3014 25.5837 17.0834V25.5834H17.0837C16.3017 25.5834 15.667 26.218 15.667 27C15.667 27.782 16.3017 28.4167 17.0837 28.4167H25.5837V36.9167C25.5837 37.6987 26.2183 38.3334 27.0003 38.3334C27.7823 38.3334 28.417 37.6987 28.417 36.9167V28.4167H36.917C37.699 28.4167 38.3337 27.782 38.3337 27C38.3337 26.218 37.699 25.5834 36.917 25.5834Z" fill="white"/>
</svg>
