<svg width="18" height="18" viewBox="0 0 18 18" fill="none" xmlns="http://www.w3.org/2000/svg">
<path d="M15.75 16.3125H2.25C1.9395 16.3125 1.6875 16.0605 1.6875 15.75C1.6875 15.4395 1.9395 15.1875 2.25 15.1875H15.75C16.0605 15.1875 16.3125 15.4395 16.3125 15.75C16.3125 16.0605 16.0605 16.3125 15.75 16.3125ZM10.5 12.375V3.375C10.5 2.625 10.125 2.25 9.375 2.25H8.625C7.875 2.25 7.5 2.625 7.5 3.375V12.375C7.5 13.125 7.875 13.5 8.625 13.5H9.375C10.125 13.5 10.5 13.125 10.5 12.375ZM15.75 12.375V6.375C15.75 5.625 15.375 5.25 14.625 5.25H13.875C13.125 5.25 12.75 5.625 12.75 6.375V12.375C12.75 13.125 13.125 13.5 13.875 13.5H14.625C15.375 13.5 15.75 13.125 15.75 12.375ZM5.25 12.375V8.625C5.25 7.875 4.875 7.5 4.125 7.5H3.375C2.625 7.5 2.25 7.875 2.25 8.625V12.375C2.25 13.125 2.625 13.5 3.375 13.5H4.125C4.875 13.5 5.25 13.125 5.25 12.375Z" fill="#BEC0CC"/>
</svg>
