<svg width="24" height="24" viewBox="0 0 24 24" fill="none" xmlns="http://www.w3.org/2000/svg">
<rect width="24" height="24" rx="12" fill="#7778E5" fill-opacity="0.2"/>
<path d="M17.0625 16.7625C17.0625 18.2865 16.2143 19.125 14.6753 19.125H9.32474C7.78574 19.125 6.9375 18.2857 6.9375 16.7625C6.9375 15.0465 7.91247 13.0425 10.6612 13.0425H13.338C16.0875 13.0418 17.0625 15.0465 17.0625 16.7625ZM12.006 11.634C13.4625 11.634 14.6468 10.4542 14.6468 9.00449C14.6468 7.55399 13.4618 6.375 12.006 6.375C10.5503 6.375 9.36603 7.55474 9.36603 9.00449C9.36603 10.4542 10.5495 11.634 12.006 11.634ZM17.0925 9.69754H15.885C15.78 9.69754 15.69 9.77253 15.6675 9.87003C15.5025 10.5825 15.1275 11.22 14.61 11.7075C14.4825 11.8275 14.5575 12.0375 14.73 12.0825C16.0575 12.3975 16.98 13.1775 17.5275 14.1675C17.565 14.25 17.64 14.3025 17.7375 14.3025H18.0525C19.23 14.3025 19.875 13.6575 19.875 12.4875C19.875 11.205 19.1475 9.69754 17.0925 9.69754ZM16.1325 4.875C15.384 4.875 14.7307 5.28522 14.388 5.89197C14.3602 5.94147 14.3617 5.99624 14.3722 6.04349C14.3835 6.09299 14.4053 6.11929 14.4518 6.15829C15.186 6.77704 15.6758 7.67327 15.756 8.68652C15.7605 8.74352 15.78 8.77877 15.8145 8.81552C15.849 8.85227 15.9007 8.87471 15.969 8.88071C16.0222 8.88521 16.077 8.88821 16.1325 8.88821C17.235 8.88821 18.135 7.98827 18.135 6.87827C18.135 5.77502 17.235 4.875 16.1325 4.875ZM4.125 12.4875C4.125 13.6575 4.77004 14.3025 5.94754 14.3025H6.26248C6.35998 14.3025 6.435 14.25 6.4725 14.1675C7.02 13.1775 7.94249 12.3975 9.26999 12.0825C9.44249 12.0375 9.51751 11.8275 9.39001 11.7075C8.87251 11.22 8.49749 10.5825 8.33249 9.87003C8.30999 9.77253 8.21996 9.69754 8.11496 9.69754H6.90747C4.85247 9.69754 4.125 11.205 4.125 12.4875ZM5.86496 6.87753C5.86496 7.98753 6.76499 8.88748 7.86749 8.88748C7.92299 8.88748 7.97776 8.88447 8.03101 8.87997C8.10001 8.87397 8.15096 8.85154 8.18546 8.81479C8.21996 8.77804 8.23946 8.74279 8.24396 8.68579C8.32421 7.67254 8.81397 6.77622 9.54822 6.15747C9.59397 6.11847 9.61653 6.09226 9.62778 6.04276C9.63828 5.99551 9.63978 5.94149 9.61203 5.89124C9.26853 5.28449 8.61599 4.87427 7.86749 4.87427C6.76499 4.87502 5.86496 5.77503 5.86496 6.87753Z" fill="#7778E5"/>
</svg>
