<svg width="24" height="24" viewBox="0 0 24 24" fill="none" xmlns="http://www.w3.org/2000/svg">
<rect width="24" height="24" rx="12" fill="#FD8A8A" fill-opacity="0.2"/>
<path d="M17.75 15.25C18.8546 15.25 19.75 16.1454 19.75 17.25C19.75 18.3546 18.8546 19.25 17.75 19.25C16.6454 19.25 15.75 18.3546 15.75 17.25C15.75 16.1454 16.6454 15.25 17.75 15.25ZM17.083 16.917C16.8991 16.9172 16.75 17.066 16.75 17.25C16.75 17.434 16.8991 17.5828 17.083 17.583H18.417C18.6009 17.5828 18.75 17.434 18.75 17.25C18.75 17.066 18.6009 16.9172 18.417 16.917H17.083Z" fill="#F26666"/>
<path d="M13.25 5C14.75 5 15.5 5.75 15.5 7.25V15.2695C15.0344 15.7981 14.75 16.4902 14.75 17.25C14.75 17.6966 14.8504 18.1191 15.0254 18.5H7.25C5.75 18.5 5 17.75 5 16.25V7.25C5 5.75 5.75 5 7.25 5H13.25ZM8 14.9375C7.6895 14.9375 7.4375 15.1895 7.4375 15.5C7.4375 15.8105 7.6895 16.0625 8 16.0625H10.25C10.5605 16.0625 10.8125 15.8105 10.8125 15.5C10.8125 15.1895 10.5605 14.9375 10.25 14.9375H8ZM17.375 10.25C17.996 10.25 18.5 10.754 18.5 11.375V14.3477C18.2601 14.2858 18.0092 14.25 17.75 14.25C17.3521 14.25 16.9725 14.3281 16.625 14.4688V10.25H17.375ZM8 12.6875C7.6895 12.6875 7.4375 12.9395 7.4375 13.25C7.4375 13.5605 7.6895 13.8125 8 13.8125H12.5C12.8105 13.8125 13.0625 13.5605 13.0625 13.25C13.0625 12.9395 12.8105 12.6875 12.5 12.6875H8ZM8.9541 6.31348C8.6436 6.31348 8.3916 6.56548 8.3916 6.87598V6.88672C7.84035 7.06897 7.4375 7.59377 7.4375 8.21777C7.43755 8.5288 7.53865 8.83313 7.7207 9.07227C7.90741 9.32121 8.1747 9.50107 8.47461 9.5791L9.17188 9.75977C9.28633 9.78991 9.36611 9.90199 9.36621 10.0322C9.36621 10.1372 9.31539 10.2056 9.28613 10.2363C9.25319 10.2708 9.19646 10.3124 9.11719 10.3125H8.81348C8.68911 10.3125 8.57964 10.203 8.56445 10.0645C8.5307 9.75545 8.25709 9.53243 7.94434 9.56543C7.63544 9.59853 7.41232 9.87661 7.44531 10.1855C7.50608 10.7495 7.88934 11.1995 8.39258 11.3652V11.375C8.39258 11.6855 8.64458 11.9375 8.95508 11.9375C9.26543 11.9373 9.51758 11.6854 9.51758 11.375V11.3701C9.73275 11.3026 9.9315 11.187 10.0957 11.0176C10.3505 10.7521 10.4912 10.4028 10.4912 10.0332C10.4912 9.39124 10.0653 8.83139 9.4541 8.6709L8.75684 8.49121C8.6895 8.47325 8.64592 8.43071 8.61816 8.39551C8.583 8.34912 8.56163 8.28458 8.56152 8.21875C8.56152 8.06425 8.67352 7.9375 8.81152 7.9375H9.11523C9.24123 7.9375 9.34828 8.04477 9.36328 8.18652C9.39649 8.49517 9.66795 8.71511 9.9834 8.68457C10.2924 8.65157 10.5154 8.37345 10.4824 8.06445C10.4209 7.49383 10.0295 7.04044 9.5166 6.87988V6.87598C9.5166 6.56552 9.26455 6.31354 8.9541 6.31348Z" fill="#F26666"/>
</svg>
