<svg width="26" height="26" viewBox="0 0 26 26" fill="none" xmlns="http://www.w3.org/2000/svg">
<circle cx="13" cy="13" r="12.5" fill="#F2F3F7" stroke="#D8DAE5"/>
<path d="M13.0155 8.5C12.1875 8.5 11.5117 7.828 11.5117 7C11.5117 6.172 12.1792 5.5 13.008 5.5H13.0155C13.8435 5.5 14.5155 6.172 14.5155 7C14.5155 7.828 13.8442 8.5 13.0155 8.5ZM14.5155 13C14.5155 12.172 13.8435 11.5 13.0155 11.5H13.008C12.18 11.5 11.5117 12.172 11.5117 13C11.5117 13.828 12.1867 14.5 13.0155 14.5C13.8442 14.5 14.5155 13.828 14.5155 13ZM14.5155 19C14.5155 18.172 13.8435 17.5 13.0155 17.5H13.008C12.18 17.5 11.5117 18.172 11.5117 19C11.5117 19.828 12.1867 20.5 13.0155 20.5C13.8442 20.5 14.5155 19.828 14.5155 19Z" fill="#D6DAE0"/>
</svg>
