<svg width="18" height="18" viewBox="0 0 18 18" fill="none" xmlns="http://www.w3.org/2000/svg">
<path d="M15.9266 7.60345C14.9418 5.9542 12.7315 3.1875 9.00027 3.1875C5.26902 3.1875 3.05869 5.9542 2.07394 7.60345C1.55869 8.46445 1.55869 9.53479 2.07394 10.3965C3.05869 12.0458 5.26902 14.8125 9.00027 14.8125C12.7315 14.8125 14.9418 12.0458 15.9266 10.3965C16.4418 9.53479 16.4418 8.4652 15.9266 7.60345ZM14.9613 9.81903C14.0988 11.2635 12.1765 13.6875 9.00027 13.6875C5.82402 13.6875 3.90177 11.2643 3.03927 9.81903C2.73777 9.31353 2.73777 8.68574 3.03927 8.18024C3.90177 6.73574 5.82402 4.31177 9.00027 4.31177C12.1765 4.31177 14.0988 6.73499 14.9613 8.18024C15.2635 8.68649 15.2635 9.31353 14.9613 9.81903ZM9.00027 5.8125C7.24227 5.8125 5.81277 7.24275 5.81277 9C5.81277 10.7572 7.24227 12.1875 9.00027 12.1875C10.7583 12.1875 12.1878 10.7572 12.1878 9C12.1878 7.24275 10.7583 5.8125 9.00027 5.8125ZM9.00027 11.0625C7.86252 11.0625 6.93777 10.1377 6.93777 9C6.93777 7.86225 7.86252 6.9375 9.00027 6.9375C10.138 6.9375 11.0628 7.86225 11.0628 9C11.0628 10.1377 10.138 11.0625 9.00027 11.0625Z" fill="#303744"/>
</svg>
