<svg width="122" height="173" viewBox="0 0 122 173" fill="none" xmlns="http://www.w3.org/2000/svg">
<path d="M120.231 30.4501V154.795C120.231 164.518 112.349 172.4 102.625 172.4H18.1187C8.39541 172.4 0.513184 164.518 0.513184 154.795V19.2324C0.51321 9.50914 8.39543 1.62693 18.1187 1.62689H93.9995L120.231 30.4501Z" fill="white"/>
<g filter="url(#filter0_d_2393_432)">
<path d="M120.231 30.4343V30.6599H111.78C102.057 30.6598 94.1744 22.7776 94.1743 13.0544V1.80347L120.231 30.4343Z" fill="white"/>
</g>
<path d="M15.3144 20.0228V28.2392H13.5157V20.0228H15.3144ZM18.8054 28.2392H17.0288V20.0228H18.8054L22.2696 25.2524V20.0228H24.0461V28.2392H22.2696L18.8054 23.0207V28.2392ZM28.0891 28.2392L25.0135 20.0228H26.9344L28.4888 24.1754C28.6776 24.6862 28.833 25.1969 29.0107 25.9075C29.2217 25.1192 29.3771 24.664 29.5548 24.1754L31.087 20.0228H32.9634L29.9434 28.2392H28.0891ZM41.0831 24.1199C41.0831 26.6292 39.4287 28.3724 37.0415 28.3724C34.6655 28.3724 33.0333 26.6403 33.0333 24.131C33.0333 21.6217 34.6766 19.8785 37.0526 19.8785C39.4398 19.8785 41.0831 21.6106 41.0831 24.1199ZM39.1845 24.1199C39.1845 22.5543 38.385 21.6106 37.0637 21.6106C35.7314 21.6106 34.9319 22.5543 34.9319 24.1199C34.9319 25.6966 35.7314 26.6403 37.0637 26.6403C38.385 26.6403 39.1845 25.6744 39.1845 24.1199ZM44.1351 20.0228V28.2392H42.3364V20.0228H44.1351ZM49.4026 28.3724C46.9376 28.3724 45.3943 26.7403 45.3943 24.1421C45.3943 21.5773 47.0265 19.8896 49.4803 19.8896C51.5344 19.8896 53.0111 21.0665 53.2665 22.9096H51.3678C51.1236 22.088 50.4241 21.6217 49.4359 21.6217C48.1035 21.6217 47.2929 22.5654 47.2929 24.131C47.2929 25.6744 48.1146 26.6403 49.4359 26.6403C50.4463 26.6403 51.1902 26.1407 51.4122 25.3302H53.2776C52.9889 27.1622 51.4567 28.3724 49.4026 28.3724ZM59.6991 28.2392H54.4805V20.0228H59.6991V21.6883H56.2793V23.2983H59.3105V24.8749H56.2793V26.5737H59.6991V28.2392Z" fill="#515151"/>
<rect x="12.6608" y="35.7815" width="92.9572" height="0.880277" fill="#D9D9D9"/>
<rect x="12.6608" y="42.8236" width="41.5491" height="8.45066" fill="#D9D9D9"/>
<rect x="12.6608" y="125.922" width="41.5491" height="4.57744" fill="#D9D9D9"/>
<rect opacity="0.6" x="12.6608" y="64.1263" width="41.5491" height="8.45066" fill="#4F94FB"/>
<rect x="80.4419" y="64.1263" width="25.1759" height="8.45066" fill="#D9D9D9"/>
<rect x="80.4419" y="82.788" width="25.1759" height="8.45066" fill="#D9D9D9"/>
<rect x="80.4419" y="101.45" width="25.1759" height="8.45066" fill="#D9D9D9"/>
<rect opacity="0.6" x="12.6608" y="101.45" width="41.5491" height="8.45066" fill="#4F94FB"/>
<rect opacity="0.6" x="12.6608" y="82.788" width="23.5914" height="8.45066" fill="#4F94FB"/>
<rect x="12.6608" y="56.2036" width="92.9572" height="0.880277" fill="#D9D9D9"/>
<rect x="12.6608" y="120.112" width="92.9572" height="0.880277" fill="#D9D9D9"/>
<path opacity="0.3" d="M86.5598 152.943L89.2458 151.678C89.2883 151.906 89.3534 152.117 89.4392 152.3C89.7463 152.952 90.3302 153.246 91.0959 152.886C92.0276 152.447 92.4721 151.436 92.4664 150.162L98.0769 147.521C98.2187 147.454 98.2805 147.292 98.2138 147.15C98.147 147.008 97.9841 146.956 97.8423 147.023L92.4343 149.569C92.3484 148.798 92.1199 147.955 91.7519 147.099C91.9868 146.918 92.2409 146.763 92.5097 146.638C92.6515 146.571 92.761 146.594 92.8106 146.699C92.9765 147.052 92.9159 147.417 93.0818 147.769C93.2267 148.077 93.5412 148.157 93.8369 148.017C94.6593 147.63 94.9901 145.758 95.3183 145.603C95.6179 145.462 95.8403 146.901 96.8611 146.421C97.0273 146.343 97.2209 146.197 97.3376 146.013C97.4023 145.899 97.4254 145.769 97.3663 145.644C97.2938 145.49 97.1374 145.41 96.9754 145.486C96.8337 145.553 96.7715 145.726 96.6336 145.79C96.1961 145.996 95.9803 144.455 95.1743 144.834C94.4694 145.166 94.0119 147.054 93.7325 147.186C93.696 147.203 93.6581 147.196 93.6353 147.148C93.5665 147.002 93.5945 146.588 93.44 146.26C93.2493 145.854 92.7909 145.754 92.2643 146.001C91.9767 146.137 91.7064 146.299 91.4599 146.479C90.3658 144.386 88.5618 143.182 87.0144 143.91C85.9732 144.4 85.5887 145.665 86.1208 146.795C86.7425 148.116 88.133 148.842 89.5555 149.088C89.3008 149.777 89.182 150.481 89.1934 151.094L86.3253 152.444C86.1835 152.511 86.1197 152.67 86.1864 152.811C86.2531 152.953 86.4181 153.009 86.5598 152.943ZM86.7366 146.505C86.3647 145.715 86.6116 144.852 87.3042 144.526C88.5194 143.954 90.0165 145.095 90.9265 146.933C90.4589 147.391 90.0876 147.927 89.8121 148.487C88.6948 148.3 87.3296 147.765 86.7366 146.505ZM85.8014 151.637C85.9562 151.692 86.1124 151.614 86.1742 151.461L86.4422 150.717L87.187 150.985C87.3418 151.04 87.5039 150.964 87.5596 150.809C87.6153 150.655 87.539 150.492 87.3841 150.436L86.6416 150.172L86.9096 149.428C86.9653 149.273 86.8908 149.115 86.736 149.059C86.5793 148.999 86.419 149.08 86.3633 149.234L86.0935 149.975L85.3506 149.711C85.1896 149.653 85.0317 149.727 84.9777 149.886C84.922 150.041 84.9984 150.203 85.1513 150.255L85.8964 150.523L85.6265 151.264C85.5726 151.423 85.647 151.581 85.8019 151.637M90.6792 149.183C90.7433 149.182 90.7976 149.172 90.8461 149.149C91.0124 149.07 91.0686 148.885 91.0038 148.748C90.956 148.646 90.8618 148.572 90.7176 148.571C90.6456 148.569 90.5736 148.567 90.5016 148.563C90.7005 148.209 90.9409 147.88 91.2177 147.583C91.5372 148.388 91.7267 149.179 91.7742 149.88L89.846 150.787C89.8695 150.291 89.9893 149.725 90.2169 149.168C90.3707 149.179 90.525 149.181 90.6792 149.183ZM90.0163 151.885C89.9496 151.743 89.8994 151.574 89.8738 151.383L91.7778 150.486C91.7297 151.331 91.4341 151.975 90.8751 152.238C90.4863 152.421 90.188 152.25 90.0163 151.885Z" fill="black"/>
<defs>
<filter id="filter0_d_2393_432" x="92.4138" y="0.747135" width="29.5777" height="32.3776" filterUnits="userSpaceOnUse" color-interpolation-filters="sRGB">
<feFlood flood-opacity="0" result="BackgroundImageFix"/>
<feColorMatrix in="SourceAlpha" type="matrix" values="0 0 0 0 0 0 0 0 0 0 0 0 0 0 0 0 0 0 127 0" result="hardAlpha"/>
<feOffset dy="0.704221"/>
<feGaussianBlur stdDeviation="0.880277"/>
<feComposite in2="hardAlpha" operator="out"/>
<feColorMatrix type="matrix" values="0 0 0 0 0 0 0 0 0 0 0 0 0 0 0 0 0 0 0.25 0"/>
<feBlend mode="normal" in2="BackgroundImageFix" result="effect1_dropShadow_2393_432"/>
<feBlend mode="normal" in="SourceGraphic" in2="effect1_dropShadow_2393_432" result="shape"/>
</filter>
</defs>
</svg>
