<svg width="301" height="76" viewBox="0 0 301 76" fill="none" xmlns="http://www.w3.org/2000/svg">
<g filter="url(#filter0_d_2393_540)">
<circle cx="34" cy="34" r="26" fill="white"/>
<circle cx="34" cy="34" r="27" stroke="#56C74A" stroke-width="2"/>
</g>
<circle cx="34.2683" cy="34.2683" r="20.2683" fill="#57C74A"/>
<path d="M44.4028 35.0428V41.6933C44.4028 42.3731 43.8511 42.9249 43.1713 42.9249C42.4914 42.9249 41.9397 42.3731 41.9397 41.6933V33.5649H42.9249C43.7407 33.5649 44.4028 34.227 44.4028 35.0428ZM42.4323 44.4028H29.6239C27.6534 44.4028 26.6681 43.4175 26.6681 41.447V29.6238C26.6681 27.6533 27.6534 26.668 29.6239 26.668H37.506C39.4765 26.668 40.4618 27.6533 40.4618 29.6238V42.4323C40.4618 43.52 41.3436 44.4028 42.4323 44.4028ZM29.8702 30.8949C29.8702 31.3037 30.0032 31.7038 30.2426 32.0181C30.4879 32.3452 30.8387 32.5815 31.2328 32.684L32.1481 32.9205C32.2989 32.9599 32.4043 33.1077 32.4043 33.2791C32.4043 33.417 32.3373 33.5068 32.2989 33.5472C32.2555 33.5925 32.1807 33.6467 32.0762 33.6467H31.6772C31.5136 33.6467 31.3707 33.5028 31.351 33.3205C31.3067 32.9146 30.9471 32.622 30.5363 32.6654C30.1303 32.7087 29.8377 33.0742 29.881 33.4801C29.9608 34.221 30.4633 34.8123 31.1244 35.03V35.0428C31.1244 35.4507 31.4555 35.7817 31.8634 35.7817C32.2713 35.7817 32.6023 35.4507 32.6023 35.0428V35.0359C32.8851 34.9472 33.1462 34.7965 33.362 34.5738C33.697 34.2251 33.8812 33.7659 33.8812 33.2802C33.8812 32.4368 33.3226 31.7018 32.5196 31.4909L31.6032 31.2545C31.5146 31.2308 31.4574 31.1746 31.421 31.1283C31.3747 31.0672 31.3471 30.9825 31.3471 30.8958C31.3471 30.6928 31.4939 30.5273 31.6752 30.5273H32.0742C32.2398 30.5273 32.3806 30.6673 32.4003 30.8535C32.4437 31.2594 32.8004 31.549 33.2152 31.5086C33.6211 31.4652 33.9137 31.0998 33.8704 30.6939C33.7896 29.9441 33.2752 29.3479 32.6013 29.1371V29.1322C32.6013 28.7243 32.2703 28.3932 31.8624 28.3932C31.4545 28.3932 31.1234 28.7243 31.1234 29.1322V29.1469C30.3993 29.3864 29.8702 30.0751 29.8702 30.8949ZM34.3039 40.4617C34.3039 40.0538 33.9728 39.7228 33.5649 39.7228H30.6091C30.2012 39.7228 29.8702 40.0538 29.8702 40.4617C29.8702 40.8696 30.2012 41.2007 30.6091 41.2007H33.5649C33.9728 41.2007 34.3039 40.8696 34.3039 40.4617ZM37.2597 37.5059C37.2597 37.098 36.9286 36.767 36.5207 36.767H30.6091C30.2012 36.767 29.8702 37.098 29.8702 37.5059C29.8702 37.9138 30.2012 38.2449 30.6091 38.2449H36.5207C36.9286 38.2449 37.2597 37.9138 37.2597 37.5059Z" fill="white"/>
<g filter="url(#filter1_d_2393_540)">
<circle cx="109" cy="34" r="26" fill="white"/>
<circle cx="109" cy="34" r="27" stroke="#EF4444" stroke-width="2"/>
</g>
<circle cx="109.268" cy="34.2683" r="20.2683" fill="#EF4444"/>
<path d="M119.403 35.0428V41.6933C119.403 42.3731 118.851 42.9249 118.171 42.9249C117.491 42.9249 116.94 42.3731 116.94 41.6933V33.5649H117.925C118.741 33.5649 119.403 34.227 119.403 35.0428ZM117.432 44.4028H104.624C102.653 44.4028 101.668 43.4175 101.668 41.447V29.6238C101.668 27.6533 102.653 26.668 104.624 26.668H112.506C114.477 26.668 115.462 27.6533 115.462 29.6238V42.4323C115.462 43.52 116.344 44.4028 117.432 44.4028ZM104.87 30.8949C104.87 31.3037 105.003 31.7038 105.243 32.0181C105.488 32.3452 105.839 32.5815 106.233 32.684L107.148 32.9205C107.299 32.9599 107.404 33.1077 107.404 33.2791C107.404 33.417 107.337 33.5068 107.299 33.5472C107.256 33.5925 107.181 33.6467 107.076 33.6467H106.677C106.514 33.6467 106.371 33.5028 106.351 33.3205C106.307 32.9146 105.947 32.622 105.536 32.6654C105.13 32.7087 104.838 33.0742 104.881 33.4801C104.961 34.221 105.463 34.8123 106.124 35.03V35.0428C106.124 35.4507 106.455 35.7817 106.863 35.7817C107.271 35.7817 107.602 35.4507 107.602 35.0428V35.0359C107.885 34.9472 108.146 34.7965 108.362 34.5738C108.697 34.2251 108.881 33.7659 108.881 33.2802C108.881 32.4368 108.323 31.7018 107.52 31.4909L106.603 31.2545C106.515 31.2308 106.457 31.1746 106.421 31.1283C106.375 31.0672 106.347 30.9825 106.347 30.8958C106.347 30.6928 106.494 30.5273 106.675 30.5273H107.074C107.24 30.5273 107.381 30.6673 107.4 30.8535C107.444 31.2594 107.8 31.549 108.215 31.5086C108.621 31.4652 108.914 31.0998 108.87 30.6939C108.79 29.9441 108.275 29.3479 107.601 29.1371V29.1322C107.601 28.7243 107.27 28.3932 106.862 28.3932C106.454 28.3932 106.123 28.7243 106.123 29.1322V29.1469C105.399 29.3864 104.87 30.0751 104.87 30.8949ZM109.304 40.4617C109.304 40.0538 108.973 39.7228 108.565 39.7228H105.609C105.201 39.7228 104.87 40.0538 104.87 40.4617C104.87 40.8696 105.201 41.2007 105.609 41.2007H108.565C108.973 41.2007 109.304 40.8696 109.304 40.4617ZM112.26 37.5059C112.26 37.098 111.929 36.767 111.521 36.767H105.609C105.201 36.767 104.87 37.098 104.87 37.5059C104.87 37.9138 105.201 38.2449 105.609 38.2449H111.521C111.929 38.2449 112.26 37.9138 112.26 37.5059Z" fill="white"/>
<g filter="url(#filter2_d_2393_540)">
<circle cx="184" cy="34" r="26" fill="white"/>
<circle cx="184" cy="34" r="27" stroke="#FFC547" stroke-width="2"/>
</g>
<circle cx="184.268" cy="34.2683" r="20.2683" fill="#FFC547"/>
<path d="M194.403 35.0428V41.6933C194.403 42.3731 193.851 42.9249 193.171 42.9249C192.491 42.9249 191.94 42.3731 191.94 41.6933V33.5649H192.925C193.741 33.5649 194.403 34.227 194.403 35.0428ZM192.432 44.4028H179.624C177.653 44.4028 176.668 43.4175 176.668 41.447V29.6238C176.668 27.6533 177.653 26.668 179.624 26.668H187.506C189.477 26.668 190.462 27.6533 190.462 29.6238V42.4323C190.462 43.52 191.344 44.4028 192.432 44.4028ZM179.87 30.8949C179.87 31.3037 180.003 31.7038 180.243 32.0181C180.488 32.3452 180.839 32.5815 181.233 32.684L182.148 32.9205C182.299 32.9599 182.404 33.1077 182.404 33.2791C182.404 33.417 182.337 33.5068 182.299 33.5472C182.256 33.5925 182.181 33.6467 182.076 33.6467H181.677C181.514 33.6467 181.371 33.5028 181.351 33.3205C181.307 32.9146 180.947 32.622 180.536 32.6654C180.13 32.7087 179.838 33.0742 179.881 33.4801C179.961 34.221 180.463 34.8123 181.124 35.03V35.0428C181.124 35.4507 181.455 35.7817 181.863 35.7817C182.271 35.7817 182.602 35.4507 182.602 35.0428V35.0359C182.885 34.9472 183.146 34.7965 183.362 34.5738C183.697 34.2251 183.881 33.7659 183.881 33.2802C183.881 32.4368 183.323 31.7018 182.52 31.4909L181.603 31.2545C181.515 31.2308 181.457 31.1746 181.421 31.1283C181.375 31.0672 181.347 30.9825 181.347 30.8958C181.347 30.6928 181.494 30.5273 181.675 30.5273H182.074C182.24 30.5273 182.381 30.6673 182.4 30.8535C182.444 31.2594 182.8 31.549 183.215 31.5086C183.621 31.4652 183.914 31.0998 183.87 30.6939C183.79 29.9441 183.275 29.3479 182.601 29.1371V29.1322C182.601 28.7243 182.27 28.3932 181.862 28.3932C181.454 28.3932 181.123 28.7243 181.123 29.1322V29.1469C180.399 29.3864 179.87 30.0751 179.87 30.8949ZM184.304 40.4617C184.304 40.0538 183.973 39.7228 183.565 39.7228H180.609C180.201 39.7228 179.87 40.0538 179.87 40.4617C179.87 40.8696 180.201 41.2007 180.609 41.2007H183.565C183.973 41.2007 184.304 40.8696 184.304 40.4617ZM187.26 37.5059C187.26 37.098 186.929 36.767 186.521 36.767H180.609C180.201 36.767 179.87 37.098 179.87 37.5059C179.87 37.9138 180.201 38.2449 180.609 38.2449H186.521C186.929 38.2449 187.26 37.9138 187.26 37.5059Z" fill="white"/>
<g filter="url(#filter3_d_2393_540)">
<circle cx="259" cy="34" r="26" fill="white"/>
<circle cx="259" cy="34" r="27" stroke="#9144EF" stroke-width="2"/>
</g>
<circle cx="259.268" cy="34.2683" r="20.2683" fill="#9144EF"/>
<path d="M269.403 35.0428V41.6933C269.403 42.3731 268.851 42.9249 268.171 42.9249C267.491 42.9249 266.94 42.3731 266.94 41.6933V33.5649H267.925C268.741 33.5649 269.403 34.227 269.403 35.0428ZM267.432 44.4028H254.624C252.653 44.4028 251.668 43.4175 251.668 41.447V29.6238C251.668 27.6533 252.653 26.668 254.624 26.668H262.506C264.476 26.668 265.462 27.6533 265.462 29.6238V42.4323C265.462 43.52 266.344 44.4028 267.432 44.4028ZM254.87 30.8949C254.87 31.3037 255.003 31.7038 255.243 32.0181C255.488 32.3452 255.839 32.5815 256.233 32.684L257.148 32.9205C257.299 32.9599 257.404 33.1077 257.404 33.2791C257.404 33.417 257.337 33.5068 257.299 33.5472C257.255 33.5925 257.181 33.6467 257.076 33.6467H256.677C256.514 33.6467 256.371 33.5028 256.351 33.3205C256.307 32.9146 255.947 32.622 255.536 32.6654C255.13 32.7087 254.838 33.0742 254.881 33.4801C254.961 34.221 255.463 34.8123 256.124 35.03V35.0428C256.124 35.4507 256.455 35.7817 256.863 35.7817C257.271 35.7817 257.602 35.4507 257.602 35.0428V35.0359C257.885 34.9472 258.146 34.7965 258.362 34.5738C258.697 34.2251 258.881 33.7659 258.881 33.2802C258.881 32.4368 258.323 31.7018 257.52 31.4909L256.603 31.2545C256.515 31.2308 256.457 31.1746 256.421 31.1283C256.375 31.0672 256.347 30.9825 256.347 30.8958C256.347 30.6928 256.494 30.5273 256.675 30.5273H257.074C257.24 30.5273 257.381 30.6673 257.4 30.8535C257.444 31.2594 257.8 31.549 258.215 31.5086C258.621 31.4652 258.914 31.0998 258.87 30.6939C258.79 29.9441 258.275 29.3479 257.601 29.1371V29.1322C257.601 28.7243 257.27 28.3932 256.862 28.3932C256.454 28.3932 256.123 28.7243 256.123 29.1322V29.1469C255.399 29.3864 254.87 30.0751 254.87 30.8949ZM259.304 40.4617C259.304 40.0538 258.973 39.7228 258.565 39.7228H255.609C255.201 39.7228 254.87 40.0538 254.87 40.4617C254.87 40.8696 255.201 41.2007 255.609 41.2007H258.565C258.973 41.2007 259.304 40.8696 259.304 40.4617ZM262.26 37.5059C262.26 37.098 261.929 36.767 261.521 36.767H255.609C255.201 36.767 254.87 37.098 254.87 37.5059C254.87 37.9138 255.201 38.2449 255.609 38.2449H261.521C261.929 38.2449 262.26 37.9138 262.26 37.5059Z" fill="white"/>
<defs>
<filter id="filter0_d_2393_540" x="0" y="0" width="76" height="76" filterUnits="userSpaceOnUse" color-interpolation-filters="sRGB">
<feFlood flood-opacity="0" result="BackgroundImageFix"/>
<feColorMatrix in="SourceAlpha" type="matrix" values="0 0 0 0 0 0 0 0 0 0 0 0 0 0 0 0 0 0 127 0" result="hardAlpha"/>
<feOffset dx="4" dy="4"/>
<feGaussianBlur stdDeviation="5"/>
<feComposite in2="hardAlpha" operator="out"/>
<feColorMatrix type="matrix" values="0 0 0 0 0 0 0 0 0 0 0 0 0 0 0 0 0 0 0.1 0"/>
<feBlend mode="normal" in2="BackgroundImageFix" result="effect1_dropShadow_2393_540"/>
<feBlend mode="normal" in="SourceGraphic" in2="effect1_dropShadow_2393_540" result="shape"/>
</filter>
<filter id="filter1_d_2393_540" x="75" y="0" width="76" height="76" filterUnits="userSpaceOnUse" color-interpolation-filters="sRGB">
<feFlood flood-opacity="0" result="BackgroundImageFix"/>
<feColorMatrix in="SourceAlpha" type="matrix" values="0 0 0 0 0 0 0 0 0 0 0 0 0 0 0 0 0 0 127 0" result="hardAlpha"/>
<feOffset dx="4" dy="4"/>
<feGaussianBlur stdDeviation="5"/>
<feComposite in2="hardAlpha" operator="out"/>
<feColorMatrix type="matrix" values="0 0 0 0 0 0 0 0 0 0 0 0 0 0 0 0 0 0 0.1 0"/>
<feBlend mode="normal" in2="BackgroundImageFix" result="effect1_dropShadow_2393_540"/>
<feBlend mode="normal" in="SourceGraphic" in2="effect1_dropShadow_2393_540" result="shape"/>
</filter>
<filter id="filter2_d_2393_540" x="150" y="0" width="76" height="76" filterUnits="userSpaceOnUse" color-interpolation-filters="sRGB">
<feFlood flood-opacity="0" result="BackgroundImageFix"/>
<feColorMatrix in="SourceAlpha" type="matrix" values="0 0 0 0 0 0 0 0 0 0 0 0 0 0 0 0 0 0 127 0" result="hardAlpha"/>
<feOffset dx="4" dy="4"/>
<feGaussianBlur stdDeviation="5"/>
<feComposite in2="hardAlpha" operator="out"/>
<feColorMatrix type="matrix" values="0 0 0 0 0 0 0 0 0 0 0 0 0 0 0 0 0 0 0.1 0"/>
<feBlend mode="normal" in2="BackgroundImageFix" result="effect1_dropShadow_2393_540"/>
<feBlend mode="normal" in="SourceGraphic" in2="effect1_dropShadow_2393_540" result="shape"/>
</filter>
<filter id="filter3_d_2393_540" x="225" y="0" width="76" height="76" filterUnits="userSpaceOnUse" color-interpolation-filters="sRGB">
<feFlood flood-opacity="0" result="BackgroundImageFix"/>
<feColorMatrix in="SourceAlpha" type="matrix" values="0 0 0 0 0 0 0 0 0 0 0 0 0 0 0 0 0 0 127 0" result="hardAlpha"/>
<feOffset dx="4" dy="4"/>
<feGaussianBlur stdDeviation="5"/>
<feComposite in2="hardAlpha" operator="out"/>
<feColorMatrix type="matrix" values="0 0 0 0 0 0 0 0 0 0 0 0 0 0 0 0 0 0 0.1 0"/>
<feBlend mode="normal" in2="BackgroundImageFix" result="effect1_dropShadow_2393_540"/>
<feBlend mode="normal" in="SourceGraphic" in2="effect1_dropShadow_2393_540" result="shape"/>
</filter>
</defs>
</svg>
