<svg width="18" height="18" viewBox="0 0 18 18" fill="none" xmlns="http://www.w3.org/2000/svg">
<path d="M14.8125 11.25V13.5C14.8125 15.3135 13.8135 16.3125 12 16.3125H4.5C2.6865 16.3125 1.6875 15.3135 1.6875 13.5V6C1.6875 4.1865 2.6865 3.1875 4.5 3.1875H6.75C7.0605 3.1875 7.3125 3.4395 7.3125 3.75C7.3125 4.0605 7.0605 4.3125 6.75 4.3125H4.5C3.31725 4.3125 2.8125 4.81725 2.8125 6V13.5C2.8125 14.6827 3.31725 15.1875 4.5 15.1875H12C13.1827 15.1875 13.6875 14.6827 13.6875 13.5V11.25C13.6875 10.9395 13.9395 10.6875 14.25 10.6875C14.5605 10.6875 14.8125 10.9395 14.8125 11.25ZM16.3125 4.542C16.3118 4.98225 16.14 5.3955 15.828 5.706L9.10574 12.3983C8.99999 12.5033 8.8575 12.5625 8.709 12.5625H6C5.6895 12.5625 5.4375 12.3105 5.4375 12V9.29176C5.4375 9.14326 5.496 8.99999 5.60175 8.89499L12.294 2.172C12.6038 1.86 13.0177 1.68825 13.458 1.6875C13.4587 1.6875 13.4595 1.6875 13.4603 1.6875C13.8998 1.6875 14.313 1.8585 14.6243 2.16975L15.831 3.37651C16.1415 3.68776 16.3132 4.10175 16.3125 4.542ZM13.2128 6.72226L11.2777 4.78725L6.5625 9.52425V11.4383H8.4765L13.2128 6.72226ZM15.1875 4.54049C15.1875 4.40099 15.1335 4.26976 15.0352 4.17151L13.8285 2.96475C13.7302 2.8665 13.599 2.8125 13.4603 2.8125H13.4595C13.32 2.8125 13.1895 2.86726 13.0913 2.96551L12.072 3.98925L14.0108 5.92799L15.0345 4.90876C15.1328 4.81126 15.1868 4.67999 15.1875 4.54049Z" fill="#303744"/>
</svg>
