<svg width="18" height="18" viewBox="0 0 18 18" fill="none" xmlns="http://www.w3.org/2000/svg">
<path d="M3.75 16.5H2.25C1.836 16.5 1.5 16.164 1.5 15.75V12.75C1.5 12.336 1.836 12 2.25 12H3.75C4.164 12 4.5 12.336 4.5 12.75V15.75C4.5 16.164 4.164 16.5 3.75 16.5ZM14.745 12.015C14.5725 12.015 14.4 12.06 14.235 12.1575L12.5325 13.1775C12.375 14.1 11.565 14.8125 10.59 14.8125H8.25C7.9425 14.8125 7.6875 14.5575 7.6875 14.25C7.6875 13.9425 7.9425 13.6875 8.25 13.6875H10.59C11.055 13.6875 11.4375 13.3125 11.4375 12.84C11.4375 12.375 11.055 12 10.59 12H6.75C5.925 12 5.25 12.675 5.25 13.5V15C5.25 15.825 5.925 16.5 6.75 16.5H10.95C11.6325 16.5 12.2925 16.2675 12.825 15.84L15.375 13.8C15.615 13.6125 15.75 13.32 15.75 13.02C15.75 12.435 15.27 12.015 14.745 12.015ZM13.5 5.625C13.5 8.10675 11.4818 10.125 9 10.125C6.51825 10.125 4.5 8.10675 4.5 5.625C4.5 3.14325 6.51825 1.125 9 1.125C11.4818 1.125 13.5 3.14325 13.5 5.625ZM10.6875 6.68399C10.6875 5.97749 10.2195 5.36171 9.54824 5.18546L8.7345 4.97552C8.65125 4.95377 8.57851 4.90421 8.52225 4.82996C8.4675 4.75796 8.4375 4.66426 8.4375 4.56601C8.4375 4.33426 8.61001 4.14523 8.82301 4.14523H9.17775C9.37275 4.14523 9.53774 4.30577 9.56099 4.51877C9.59399 4.82777 9.86776 5.04896 10.1813 5.01746C10.4903 4.98446 10.713 4.70628 10.68 4.39728C10.6095 3.74403 10.1482 3.23025 9.55275 3.07425V2.99927C9.55275 2.68877 9.30075 2.43677 8.99025 2.43677C8.67975 2.43677 8.42775 2.68877 8.42775 2.99927V3.08102C7.788 3.26027 7.31401 3.85428 7.31401 4.56528C7.31401 4.90803 7.42575 5.24253 7.62675 5.50653C7.8315 5.77953 8.12475 5.97674 8.454 6.06299L9.26775 6.27301C9.4425 6.31876 9.56474 6.48753 9.56474 6.68253C9.56474 6.79728 9.52199 6.90522 9.44474 6.98547C9.40199 7.02972 9.31201 7.10248 9.17926 7.10248H8.82449C8.62949 7.10248 8.4645 6.94203 8.44125 6.72903C8.40825 6.42003 8.13526 6.19801 7.82101 6.23026C7.51201 6.26326 7.28925 6.54152 7.32225 6.85052C7.392 7.49477 7.84199 8.00328 8.42699 8.16678V8.25C8.42699 8.5605 8.67899 8.8125 8.98949 8.8125C9.29999 8.8125 9.55199 8.5605 9.55199 8.25V8.17502C9.81374 8.10602 10.056 7.97104 10.2525 7.76779C10.533 7.47679 10.6875 7.09124 10.6875 6.68399Z" fill="#6690FF"/>
</svg>
