<svg width="18" height="18" viewBox="0 0 18 18" fill="none" xmlns="http://www.w3.org/2000/svg">
<path d="M4.51605 6.642C4.52576 6.18554 4.73017 5.83996 5.1128 5.59497C6.0272 5.01028 6.941 4.42499 7.8548 3.84001C8.18009 3.63178 8.51949 3.44237 8.82713 3.2109C9.28212 2.86885 10.0886 2.91444 10.5106 3.55854C10.8536 4.08206 11.1862 4.61205 11.5235 5.1391C11.9741 5.8432 12.4241 6.54789 12.8753 7.2517C13.3029 7.91904 13.1526 8.62373 12.4871 9.05313C11.2383 9.8587 9.98828 10.6625 8.73949 11.4675C8.21391 11.8063 7.48922 11.6225 7.11511 11.0457C6.57248 10.209 6.03543 9.36842 5.49603 8.52961C5.23957 8.1308 4.9834 7.73169 4.72634 7.33317C4.59046 7.12258 4.51194 6.89523 4.51576 6.64171L4.51605 6.642ZM10.173 8.28079C9.60859 7.40375 9.04948 6.53436 8.48685 5.66026C8.12833 5.89526 7.78304 6.12143 7.43158 6.35201C7.54422 6.52789 7.64863 6.69083 7.75539 6.857C7.93392 6.74524 8.09744 6.64259 8.26568 6.5373C8.72214 7.24552 9.17095 7.94139 9.62535 8.64637C9.81505 8.51961 9.98858 8.40402 10.173 8.28079Z" fill="#4F94FB"/>
<path d="M16.1251 12.2503C16.1251 12.9794 16.126 13.7088 16.1251 14.4379C16.1239 15.192 15.608 15.7152 14.856 15.7167C13.3981 15.7196 11.9399 15.7202 10.4817 15.7167C9.73845 15.7149 9.22258 15.1899 9.2217 14.4447C9.22052 13.642 9.22376 12.8394 9.21876 12.0368C9.21817 11.9297 9.25405 11.8735 9.34287 11.8171C10.4973 11.0815 11.6487 10.3406 12.8013 9.60242C13.0869 9.41948 13.3201 9.18655 13.4869 8.89155C13.5325 8.81126 13.5851 8.78744 13.6731 8.78862C14.0692 8.79273 14.4657 8.78685 14.8619 8.79126C15.6083 8.79979 16.1215 9.31684 16.1242 10.063C16.1268 10.7921 16.1248 11.5215 16.1248 12.2506L16.1251 12.2503ZM11.8287 12.9373C11.7443 13.1003 11.6531 13.2762 11.5519 13.4712C11.6987 13.55 11.8296 13.6364 11.9722 13.6944C12.4416 13.8859 12.9081 13.8929 13.3472 13.6117C13.719 13.3738 13.8366 13.0121 13.7716 12.5932C13.7131 12.2165 13.4754 11.9894 13.1087 11.895C13.0866 11.8894 13.0651 11.8812 13.0266 11.8685C13.1781 11.6924 13.3054 11.5097 13.4666 11.3644C13.691 11.1624 13.6619 10.9212 13.6375 10.6636H11.7511V11.2477H12.7128C12.5299 11.4683 12.3678 11.6609 12.2099 11.8568C12.1749 11.9003 12.1346 11.9541 12.1308 12.0059C12.1199 12.1509 12.1269 12.2974 12.1269 12.4559C12.1831 12.4421 12.2243 12.4318 12.2657 12.4215C12.4699 12.3712 12.6731 12.3615 12.8684 12.4529C13.0472 12.5368 13.1428 12.7082 13.1137 12.8779C13.0828 13.06 12.9546 13.1844 12.7501 13.2026C12.6354 13.2129 12.5107 13.2135 12.4037 13.1785C12.2113 13.1159 12.0287 13.0229 11.829 12.9371L11.8287 12.9373Z" fill="#4F94FB"/>
<path d="M8.40441 12.2351C8.40441 12.4822 8.40441 12.716 8.40441 12.9501C8.40441 13.4445 8.40588 13.9386 8.40382 14.433C8.40058 15.1745 7.87795 15.6971 7.13532 15.6983C5.67711 15.7003 4.2192 15.7003 2.761 15.6983C2.03102 15.6974 1.50191 15.168 1.50132 14.4383C1.49956 12.9751 1.49956 11.5116 1.50132 10.0484C1.50221 9.32665 2.00867 8.8043 2.73188 8.79342C3.43158 8.78283 4.13127 8.78813 4.83096 8.79489C4.88801 8.79548 4.96507 8.84754 4.99801 8.89842C5.51418 9.69428 6.03122 10.4899 6.53474 11.294C6.95238 11.9604 7.53413 12.2916 8.32617 12.2313C8.345 12.2298 8.36441 12.2331 8.4047 12.2354L8.40441 12.2351ZM4.90154 13.2186C4.8986 13.2066 4.89537 13.1948 4.89243 13.1827C5.05242 13.0327 5.22183 12.8916 5.37006 12.7307C5.54506 12.541 5.72623 12.3498 5.86123 12.1325C6.20504 11.5787 5.93711 10.9128 5.31389 10.7249C4.75243 10.5554 4.13479 10.826 3.84745 11.3754C4.02156 11.4787 4.19626 11.5825 4.36685 11.6837C4.46185 11.5766 4.53979 11.4692 4.63743 11.384C4.80566 11.2369 5.03478 11.2313 5.17536 11.3537C5.31095 11.4719 5.33889 11.6942 5.22477 11.8792C5.15095 11.9992 5.06448 12.1142 4.96772 12.2163C4.63449 12.5675 4.29391 12.9116 3.95774 13.2601C3.92568 13.2933 3.8848 13.3366 3.88245 13.3771C3.87362 13.531 3.87892 13.6857 3.87892 13.8392H6.06211V13.2186H4.90184H4.90154Z" fill="#4F94FB"/>
</svg>
