<svg width="372" height="300" viewBox="0 0 372 300" fill="none" xmlns="http://www.w3.org/2000/svg">
<rect width="372" height="1" fill="#EBECF2"/>
<rect y="75.25" width="358" height="0.5" fill="#EBECF2"/>
<path d="M345.624 68.805V69.633H344.556V71.625H343.536V69.633H339.228V68.901L343.548 63.297H344.556V68.805H345.624ZM343.548 68.805V64.629L340.344 68.805H343.548ZM350.148 71.757C347.988 71.757 346.596 70.125 346.596 67.461C346.596 64.749 347.988 63.177 350.148 63.177C352.32 63.177 353.688 64.761 353.688 67.461C353.688 70.113 352.308 71.757 350.148 71.757ZM350.148 70.785C351.648 70.785 352.644 69.549 352.644 67.461C352.644 65.373 351.648 64.149 350.148 64.149C348.636 64.149 347.64 65.361 347.64 67.461C347.64 69.561 348.636 70.785 350.148 70.785ZM358.445 71.757C356.285 71.757 354.893 70.125 354.893 67.461C354.893 64.749 356.285 63.177 358.445 63.177C360.617 63.177 361.985 64.761 361.985 67.461C361.985 70.113 360.605 71.757 358.445 71.757ZM358.445 70.785C359.945 70.785 360.941 69.549 360.941 67.461C360.941 65.373 359.945 64.149 358.445 64.149C356.933 64.149 355.937 65.361 355.937 67.461C355.937 69.561 356.933 70.785 358.445 70.785ZM368.734 71.625H367.582L364.462 68.469V71.625H363.442V62.853H364.462V67.953L367.45 65.301H368.638L365.506 68.217L368.734 71.625Z" fill="#8D8F99"/>
<path d="M33.6279 68.805V69.633H32.5599V71.625H31.5399V69.633H27.2319V68.901L31.5519 63.297H32.5599V68.805H33.6279ZM31.5519 68.805V64.629L28.3479 68.805H31.5519Z" fill="#8D8F99"/>
<rect y="150" width="358" height="0.5" fill="#EBECF2"/>
<path d="M342.6 141.479C344.1 141.479 345.192 142.499 345.192 143.939C345.192 145.403 344.016 146.507 342.276 146.507C340.764 146.507 339.624 145.715 339.312 144.647L340.248 144.275C340.476 145.055 341.232 145.619 342.264 145.619C343.404 145.619 344.136 144.875 344.136 143.879C344.136 142.811 343.308 142.187 342.348 142.187H341.304V141.479L343.812 138.863H339.684V138.035H344.964V138.851L342.48 141.479H342.6ZM349.879 146.507C347.719 146.507 346.327 144.875 346.327 142.211C346.327 139.499 347.719 137.927 349.879 137.927C352.051 137.927 353.419 139.511 353.419 142.211C353.419 144.863 352.039 146.507 349.879 146.507ZM349.879 145.535C351.379 145.535 352.375 144.299 352.375 142.211C352.375 140.123 351.379 138.899 349.879 138.899C348.367 138.899 347.371 140.111 347.371 142.211C347.371 144.311 348.367 145.535 349.879 145.535ZM358.175 146.507C356.015 146.507 354.623 144.875 354.623 142.211C354.623 139.499 356.015 137.927 358.175 137.927C360.347 137.927 361.715 139.511 361.715 142.211C361.715 144.863 360.335 146.507 358.175 146.507ZM358.175 145.535C359.675 145.535 360.671 144.299 360.671 142.211C360.671 140.123 359.675 138.899 358.175 138.899C356.663 138.899 355.667 140.111 355.667 142.211C355.667 144.311 356.663 145.535 358.175 145.535ZM368.464 146.375H367.312L364.192 143.219V146.375H363.172V137.603H364.192V142.703L367.18 140.051H368.368L365.236 142.967L368.464 146.375Z" fill="#8D8F99"/>
<path d="M30.8734 141.479C32.3734 141.479 33.4654 142.499 33.4654 143.939C33.4654 145.403 32.2894 146.507 30.5494 146.507C29.0374 146.507 27.8974 145.715 27.5854 144.647L28.5214 144.275C28.7494 145.055 29.5054 145.619 30.5374 145.619C31.6774 145.619 32.4094 144.875 32.4094 143.879C32.4094 142.811 31.5814 142.187 30.6214 142.187H29.5774V141.479L32.0854 138.863H27.9574V138.035H33.2374V138.851L30.7534 141.479H30.8734Z" fill="#8D8F99"/>
<rect y="224.75" width="358" height="0.5" fill="#EBECF2"/>
<path d="M340.932 220.261H345.012V221.125H339.444V220.453L342.516 217.297C343.092 216.733 343.824 215.881 343.824 214.969C343.824 214.141 343.188 213.553 342.24 213.553C341.388 213.553 340.68 214.033 340.428 214.957L339.456 214.633C339.768 213.433 340.872 212.665 342.24 212.665C343.824 212.665 344.856 213.577 344.856 214.933C344.856 216.073 344.124 217.009 343.308 217.801L340.932 220.261ZM349.679 221.257C347.519 221.257 346.127 219.625 346.127 216.961C346.127 214.249 347.519 212.677 349.679 212.677C351.851 212.677 353.219 214.261 353.219 216.961C353.219 219.613 351.839 221.257 349.679 221.257ZM349.679 220.285C351.179 220.285 352.175 219.049 352.175 216.961C352.175 214.873 351.179 213.649 349.679 213.649C348.167 213.649 347.171 214.861 347.171 216.961C347.171 219.061 348.167 220.285 349.679 220.285ZM357.976 221.257C355.816 221.257 354.424 219.625 354.424 216.961C354.424 214.249 355.816 212.677 357.976 212.677C360.148 212.677 361.516 214.261 361.516 216.961C361.516 219.613 360.136 221.257 357.976 221.257ZM357.976 220.285C359.476 220.285 360.472 219.049 360.472 216.961C360.472 214.873 359.476 213.649 357.976 213.649C356.464 213.649 355.468 214.861 355.468 216.961C355.468 219.061 356.464 220.285 357.976 220.285ZM368.265 221.125H367.113L363.993 217.969V221.125H362.973V212.353H363.993V217.453L366.981 214.801H368.169L365.037 217.717L368.265 221.125Z" fill="#8D8F99"/>
<path d="M29.4047 220.261H33.4847V221.125H27.9167V220.453L30.9887 217.297C31.5647 216.733 32.2967 215.881 32.2967 214.969C32.2967 214.141 31.6607 213.553 30.7127 213.553C29.8607 213.553 29.1527 214.033 28.9007 214.957L27.9287 214.633C28.2407 213.433 29.3447 212.665 30.7127 212.665C32.2967 212.665 33.3287 213.577 33.3287 214.933C33.3287 216.073 32.5967 217.009 31.7807 217.801L29.4047 220.261Z" fill="#8D8F99"/>
<rect y="299" width="358" height="1" fill="#EBECF2"/>
<path d="M341.94 295.136H343.068V296H339.516V295.136H340.92V289.652H339.564V288.8H340.92V287.66H341.94V295.136ZM347.359 296.132C345.199 296.132 343.807 294.5 343.807 291.836C343.807 289.124 345.199 287.552 347.359 287.552C349.531 287.552 350.899 289.136 350.899 291.836C350.899 294.488 349.519 296.132 347.359 296.132ZM347.359 295.16C348.859 295.16 349.855 293.924 349.855 291.836C349.855 289.748 348.859 288.524 347.359 288.524C345.847 288.524 344.851 289.736 344.851 291.836C344.851 293.936 345.847 295.16 347.359 295.16ZM355.656 296.132C353.496 296.132 352.104 294.5 352.104 291.836C352.104 289.124 353.496 287.552 355.656 287.552C357.828 287.552 359.196 289.136 359.196 291.836C359.196 294.488 357.816 296.132 355.656 296.132ZM355.656 295.16C357.156 295.16 358.152 293.924 358.152 291.836C358.152 289.748 357.156 288.524 355.656 288.524C354.144 288.524 353.148 289.736 353.148 291.836C353.148 293.936 354.144 295.16 355.656 295.16ZM365.945 296H364.793L361.673 292.844V296H360.653V287.228H361.673V292.328L364.661 289.676H365.849L362.717 292.592L365.945 296Z" fill="#8D8F99"/>
<path d="M32.5806 295.136H33.7086V296H30.1566V295.136H31.5606V289.652H30.2046V288.8H31.5606V287.66H32.5806V295.136Z" fill="#8D8F99"/>
</svg>
