<svg width="30" height="30" viewBox="0 0 30 30" fill="none" xmlns="http://www.w3.org/2000/svg">
<circle cx="14.8647" cy="14.7318" r="14.7317" fill="#57C74A"/>
<path d="M22.2308 15.2947V20.1286C22.2308 20.6227 21.8298 21.0237 21.3356 21.0237C20.8415 21.0237 20.4405 20.6227 20.4405 20.1286V14.2206H21.1566C21.7495 14.2206 22.2308 14.7018 22.2308 15.2947ZM20.7985 22.0979H11.4889C10.0567 22.0979 9.34058 21.3818 9.34058 19.9495V11.3561C9.34058 9.92383 10.0567 9.2077 11.4889 9.2077H17.2179C18.6502 9.2077 19.3663 9.92383 19.3663 11.3561V20.6657C19.3663 21.4563 20.0072 22.0979 20.7985 22.0979ZM11.668 12.2799C11.668 12.5771 11.7646 12.8678 11.9387 13.0963C12.117 13.334 12.3719 13.5058 12.6584 13.5803L13.3237 13.7522C13.4332 13.7808 13.5099 13.8883 13.5099 14.0129C13.5099 14.1131 13.4612 14.1783 13.4332 14.2077C13.4017 14.2407 13.3473 14.28 13.2714 14.28H12.9813C12.8625 14.28 12.7586 14.1754 12.7443 14.0429C12.7121 13.7479 12.4507 13.5353 12.1521 13.5668C11.857 13.5983 11.6443 13.8639 11.6758 14.1589C11.7338 14.6975 12.0991 15.1272 12.5796 15.2855V15.2947C12.5796 15.5912 12.8202 15.8318 13.1167 15.8318C13.4132 15.8318 13.6538 15.5912 13.6538 15.2947V15.2898C13.8593 15.2253 14.0491 15.1157 14.2059 14.9539C14.4494 14.7004 14.5833 14.3667 14.5833 14.0136C14.5833 13.4006 14.1773 12.8664 13.5936 12.7131L12.9276 12.5413C12.8632 12.5241 12.8216 12.4832 12.7951 12.4496C12.7615 12.4052 12.7415 12.3436 12.7415 12.2806C12.7415 12.1331 12.8481 12.0127 12.9799 12.0127H13.2699C13.3902 12.0127 13.4926 12.1145 13.507 12.2498C13.5385 12.5449 13.7977 12.7553 14.0992 12.726C14.3943 12.6945 14.6069 12.4289 14.5754 12.1338C14.5167 11.5889 14.1429 11.1555 13.653 11.0023V10.9987C13.653 10.7022 13.4124 10.4616 13.116 10.4616C12.8195 10.4616 12.5789 10.7022 12.5789 10.9987V11.0095C12.0525 11.1835 11.668 11.6841 11.668 12.2799ZM14.8905 19.2334C14.8905 18.9369 14.6499 18.6963 14.3534 18.6963H12.2051C11.9086 18.6963 11.668 18.9369 11.668 19.2334C11.668 19.5299 11.9086 19.7705 12.2051 19.7705H14.3534C14.6499 19.7705 14.8905 19.5299 14.8905 19.2334ZM17.0389 17.0851C17.0389 16.7886 16.7983 16.548 16.5018 16.548H12.2051C11.9086 16.548 11.668 16.7886 11.668 17.0851C11.668 17.3815 11.9086 17.6221 12.2051 17.6221H16.5018C16.7983 17.6221 17.0389 17.3815 17.0389 17.0851Z" fill="white"/>
</svg>
