<svg width="24" height="24" viewBox="0 0 24 24" fill="none" xmlns="http://www.w3.org/2000/svg">
<rect width="24" height="24" rx="12" fill="#8CC0DE" fill-opacity="0.2"/>
<path d="M9.76575 19.6875C9.249 19.6875 8.82449 19.2675 8.82449 18.75C8.82449 18.2325 9.24074 17.8125 9.75824 17.8125H9.76575C10.2832 17.8125 10.7032 18.2325 10.7032 18.75C10.7032 19.2675 10.2832 19.6875 9.76575 19.6875ZM16.7032 18.75C16.7032 18.2325 16.2832 17.8125 15.7657 17.8125H15.7582C15.2407 17.8125 14.8245 18.2325 14.8245 18.75C14.8245 19.2675 15.2482 19.6875 15.7657 19.6875C16.2832 19.6875 16.7032 19.2675 16.7032 18.75ZM18.72 9.27L17.9625 13.905C17.7675 14.97 17.325 15.75 15.75 15.75H9.54749C8.79749 15.75 8.1675 15.2025 8.0625 14.46L6.93677 6.624C6.86927 6.1515 6.47926 5.8125 6.00751 5.8125H5.8125C5.502 5.8125 5.25 5.5605 5.25 5.25C5.25 4.9395 5.502 4.6875 5.8125 4.6875H6.00751C7.04476 4.6875 7.90352 5.433 8.04977 6.4605L8.20651 7.5H17.25C18.18 7.5 18.8925 8.3475 18.72 9.27ZM15.1875 11.625C15.1875 11.3145 14.9355 11.0625 14.625 11.0625H13.6875V10.125C13.6875 9.8145 13.4355 9.5625 13.125 9.5625C12.8145 9.5625 12.5625 9.8145 12.5625 10.125V11.0625H11.625C11.3145 11.0625 11.0625 11.3145 11.0625 11.625C11.0625 11.9355 11.3145 12.1875 11.625 12.1875H12.5625V13.125C12.5625 13.4355 12.8145 13.6875 13.125 13.6875C13.4355 13.6875 13.6875 13.4355 13.6875 13.125V12.1875H14.625C14.9355 12.1875 15.1875 11.9355 15.1875 11.625Z" fill="#73BCE5"/>
</svg>
