<svg width="24" height="24" viewBox="0 0 24 24" fill="none" xmlns="http://www.w3.org/2000/svg">
<circle cx="12" cy="12" r="12" fill="#252834"/>
<path d="M12.015 7.5C11.187 7.5 10.5112 6.828 10.5112 6C10.5112 5.172 11.1787 4.5 12.0075 4.5H12.015C12.843 4.5 13.515 5.172 13.515 6C13.515 6.828 12.8437 7.5 12.015 7.5ZM13.515 12C13.515 11.172 12.843 10.5 12.015 10.5H12.0075C11.1795 10.5 10.5112 11.172 10.5112 12C10.5112 12.828 11.1862 13.5 12.015 13.5C12.8437 13.5 13.515 12.828 13.515 12ZM13.515 18C13.515 17.172 12.843 16.5 12.015 16.5H12.0075C11.1795 16.5 10.5112 17.172 10.5112 18C10.5112 18.828 11.1862 19.5 12.015 19.5C12.8437 19.5 13.515 18.828 13.515 18Z" fill="white"/>
</svg>
