<svg width="122" height="184" viewBox="0 0 122 184" fill="none" xmlns="http://www.w3.org/2000/svg">
<g clip-path="url(#clip0_2004_1885)">
<path d="M58.5985 61.2503V59.9029C58.5985 57.7154 57.4153 55.9419 55.1634 55.9419H11.3166C9.06475 55.9419 7.91797 57.7154 7.91797 59.9029L11.8361 131.326H113.197V65.2096C113.197 63.0221 111.371 61.2486 109.119 61.2486H58.6003L58.5985 61.2503Z" fill="#BEC0CC"/>
<path opacity="0.1" d="M58.5985 61.2503V59.9029C58.5985 57.7154 57.4153 55.9419 55.1634 55.9419H11.3166C9.06475 55.9419 7.91797 57.7154 7.91797 59.9029L11.8361 131.326H113.197V65.2096C113.197 63.0221 111.371 61.2486 109.119 61.2486H58.6003L58.5985 61.2503Z" fill="black"/>
<path d="M53.2349 75.0974L51.7302 79.1484H8.07801C5.82615 79.1484 4 80.922 4 83.1094L11.8346 133.539C11.8346 135.726 13.6607 137.5 15.9126 137.5H109.118C111.37 137.5 113.196 135.726 113.196 133.539L118 76.4396C118 74.2522 116.174 72.4786 113.922 72.4786H57.0714C55.353 72.4786 53.8187 73.5247 53.2349 75.0956V75.0974Z" fill="#BEC0CC"/>
</g>
<path d="M2.31 161.5H1.092V151.7H2.198L8.26 159.316V151.7H9.478V161.5H8.372L2.31 153.884V161.5ZM12.2624 160.576C11.5484 159.848 11.1844 158.938 11.1844 157.86C11.1844 156.782 11.5484 155.872 12.2624 155.158C12.9904 154.43 13.9004 154.066 14.9784 154.066C16.0564 154.066 16.9664 154.43 17.6944 155.158C18.4224 155.872 18.7864 156.782 18.7864 157.86C18.7864 158.938 18.4224 159.848 17.6944 160.576C16.9664 161.29 16.0564 161.654 14.9784 161.654C13.9004 161.654 12.9904 161.29 12.2624 160.576ZM14.9784 160.478C15.7204 160.478 16.3364 160.226 16.8264 159.736C17.3164 159.232 17.5684 158.602 17.5684 157.86C17.5684 157.118 17.3164 156.488 16.8264 155.998C16.3364 155.494 15.7204 155.242 14.9784 155.242C14.2504 155.242 13.6344 155.494 13.1444 155.998C12.6544 156.488 12.4024 157.118 12.4024 157.86C12.4024 158.602 12.6544 159.232 13.1444 159.736C13.6344 160.226 14.2504 160.478 14.9784 160.478ZM28.2122 161.5H24.3342V151.7H28.2122C29.6402 151.7 30.8442 152.176 31.8102 153.114C32.7762 154.052 33.2662 155.214 33.2662 156.6C33.2662 157.986 32.7762 159.148 31.8102 160.086C30.8442 161.024 29.6402 161.5 28.2122 161.5ZM28.2122 152.876H25.5942V160.324H28.2122C29.2762 160.324 30.1582 159.96 30.8722 159.246C31.5862 158.532 31.9502 157.65 31.9502 156.6C31.9502 155.536 31.5862 154.654 30.8722 153.94C30.1582 153.226 29.2622 152.876 28.2122 152.876ZM38.1746 154.066C39.2526 154.066 40.1486 154.458 40.8346 155.256V154.22H42.0106V161.5H40.8346V160.464C40.1486 161.262 39.2526 161.654 38.1746 161.654C37.1526 161.654 36.2986 161.29 35.6126 160.576C34.9266 159.848 34.5906 158.938 34.5906 157.86C34.5906 156.782 34.9266 155.872 35.6126 155.158C36.2986 154.43 37.1526 154.066 38.1746 154.066ZM38.3006 155.242C37.6006 155.242 37.0126 155.494 36.5226 155.998C36.0466 156.488 35.8086 157.118 35.8086 157.86C35.8086 158.602 36.0466 159.232 36.5226 159.736C37.0126 160.226 37.6006 160.478 38.3006 160.478C39.0146 160.478 39.6026 160.226 40.0786 159.736C40.5686 159.232 40.8066 158.602 40.8066 157.86C40.8066 157.118 40.5686 156.488 40.0786 155.998C39.6026 155.494 39.0146 155.242 38.3006 155.242ZM43.208 155.256V154.22H44.384V152.764H45.56V154.22H47.59V155.256H45.56V159.218C45.56 159.876 46.008 160.366 46.61 160.366H47.59V161.5H46.526C45.924 161.5 45.406 161.29 45 160.884C44.594 160.478 44.384 159.96 44.384 159.358V155.256H43.208ZM52.2156 154.066C53.2936 154.066 54.1896 154.458 54.8756 155.256V154.22H56.0516V161.5H54.8756V160.464C54.1896 161.262 53.2936 161.654 52.2156 161.654C51.1936 161.654 50.3396 161.29 49.6536 160.576C48.9676 159.848 48.6316 158.938 48.6316 157.86C48.6316 156.782 48.9676 155.872 49.6536 155.158C50.3396 154.43 51.1936 154.066 52.2156 154.066ZM52.3416 155.242C51.6416 155.242 51.0536 155.494 50.5636 155.998C50.0876 156.488 49.8496 157.118 49.8496 157.86C49.8496 158.602 50.0876 159.232 50.5636 159.736C51.0536 160.226 51.6416 160.478 52.3416 160.478C53.0556 160.478 53.6436 160.226 54.1196 159.736C54.6096 159.232 54.8476 158.602 54.8476 157.86C54.8476 157.118 54.6096 156.488 54.1196 155.998C53.6436 155.494 53.0556 155.242 52.3416 155.242ZM1.568 178.5H0.238L4.536 168.7H5.558L9.856 178.5H8.526L7.574 176.302H2.52L1.568 178.5ZM7.056 175.126L5.054 170.506L3.038 175.126H7.056ZM12.6425 178.5L9.50655 171.22H10.7245L13.1745 176.988L15.6385 171.22H16.8565L13.7205 178.5H12.6425ZM20.9891 171.066C22.0671 171.066 22.9631 171.458 23.6491 172.256V171.22H24.8251V178.5H23.6491V177.464C22.9631 178.262 22.0671 178.654 20.9891 178.654C19.9671 178.654 19.1131 178.29 18.4271 177.576C17.7411 176.848 17.4051 175.938 17.4051 174.86C17.4051 173.782 17.7411 172.872 18.4271 172.158C19.1131 171.43 19.9671 171.066 20.9891 171.066ZM21.1151 172.242C20.4151 172.242 19.8271 172.494 19.3371 172.998C18.8611 173.488 18.6231 174.118 18.6231 174.86C18.6231 175.602 18.8611 176.232 19.3371 176.736C19.8271 177.226 20.4151 177.478 21.1151 177.478C21.8291 177.478 22.4171 177.226 22.8931 176.736C23.3831 176.232 23.6211 175.602 23.6211 174.86C23.6211 174.118 23.3831 173.488 22.8931 172.998C22.4171 172.494 21.8291 172.242 21.1151 172.242ZM27.9825 178.5H26.8065V171.22H27.9825V178.5ZM26.8065 170.03C26.5125 169.708 26.5125 169.162 26.8065 168.868C27.1285 168.546 27.6605 168.546 27.9825 168.868C28.3045 169.162 28.3045 169.708 27.9825 170.03C27.6605 170.324 27.1285 170.324 26.8065 170.03ZM31.1407 178.5H29.9647V168H31.1407V178.5ZM36.3289 171.066C37.4069 171.066 38.3029 171.458 38.9889 172.256V171.22H40.1649V178.5H38.9889V177.464C38.3029 178.262 37.4069 178.654 36.3289 178.654C35.3069 178.654 34.4529 178.29 33.7669 177.576C33.0809 176.848 32.7449 175.938 32.7449 174.86C32.7449 173.782 33.0809 172.872 33.7669 172.158C34.4529 171.43 35.3069 171.066 36.3289 171.066ZM36.4549 172.242C35.7549 172.242 35.1669 172.494 34.6769 172.998C34.2009 173.488 33.9629 174.118 33.9629 174.86C33.9629 175.602 34.2009 176.232 34.6769 176.736C35.1669 177.226 35.7549 177.478 36.4549 177.478C37.1689 177.478 37.7569 177.226 38.2329 176.736C38.7229 176.232 38.9609 175.602 38.9609 174.86C38.9609 174.118 38.7229 173.488 38.2329 172.998C37.7569 172.494 37.1689 172.242 36.4549 172.242ZM42.1463 178.5V168H43.3223V172.256C44.0083 171.458 44.8903 171.066 45.9683 171.066C46.9903 171.066 47.8443 171.43 48.5303 172.158C49.2163 172.872 49.5663 173.782 49.5663 174.86C49.5663 175.938 49.2163 176.848 48.5303 177.576C47.8443 178.29 46.9903 178.654 45.9683 178.654C44.8903 178.654 44.0083 178.262 43.3223 177.464V178.5H42.1463ZM45.8423 172.242C45.1423 172.242 44.5543 172.494 44.0643 172.998C43.5883 173.488 43.3503 174.118 43.3503 174.86C43.3503 175.602 43.5883 176.232 44.0643 176.736C44.5543 177.226 45.1423 177.478 45.8423 177.478C46.5563 177.478 47.1443 177.226 47.6203 176.736C48.1103 176.232 48.3483 175.602 48.3483 174.86C48.3483 174.118 48.1103 173.488 47.6203 172.998C47.1443 172.494 46.5563 172.242 45.8423 172.242ZM52.3458 178.5H51.1698V168H52.3458V178.5ZM61.426 175.266H55.168C55.252 175.924 55.546 176.47 56.036 176.904C56.526 177.338 57.128 177.548 57.828 177.548C58.752 177.548 59.466 177.198 59.984 176.498L61.132 176.862C60.46 177.968 59.242 178.654 57.828 178.654C56.722 178.654 55.798 178.29 55.056 177.576C54.314 176.848 53.95 175.938 53.95 174.86C53.95 173.782 54.314 172.872 55.028 172.158C55.742 171.43 56.638 171.066 57.702 171.066C58.766 171.066 59.662 171.43 60.376 172.158C61.09 172.872 61.454 173.782 61.454 174.86C61.454 174.944 61.44 175.084 61.426 175.266ZM55.182 174.314H60.236C60.124 173.684 59.83 173.166 59.354 172.76C58.878 172.354 58.318 172.158 57.674 172.158C57.044 172.158 56.498 172.354 56.036 172.76C55.574 173.166 55.294 173.684 55.182 174.314ZM63.6829 176.974C64.1449 176.974 64.5229 177.352 64.5229 177.814C64.5929 178.556 63.5569 178.934 63.0809 178.416C62.5629 177.94 62.9409 176.904 63.6829 176.974ZM64.2009 175.574H63.1789L63.0529 168.7H64.3129L64.2009 175.574Z" fill="#BEC0CC"/>
<defs>
<clipPath id="clip0_2004_1885">
<rect width="114" height="137" fill="white" transform="translate(4 0.5)"/>
</clipPath>
</defs>
</svg>
