<svg width="114" height="138" viewBox="0 0 114 138" fill="none" xmlns="http://www.w3.org/2000/svg">
<g clip-path="url(#clip0_2004_1886)">
<path d="M54.5985 61.2503V59.9029C54.5985 57.7154 53.4153 55.9419 51.1634 55.9419H7.3166C5.06475 55.9419 3.91797 57.7154 3.91797 59.9029L7.83612 131.326H109.197V65.2096C109.197 63.0221 107.371 61.2486 105.119 61.2486H54.6003L54.5985 61.2503Z" fill="#BEC0CC"/>
<path opacity="0.1" d="M54.5985 61.2503V59.9029C54.5985 57.7154 53.4153 55.9419 51.1634 55.9419H7.3166C5.06475 55.9419 3.91797 57.7154 3.91797 59.9029L7.83612 131.326H109.197V65.2096C109.197 63.0221 107.371 61.2486 105.119 61.2486H54.6003L54.5985 61.2503Z" fill="black"/>
<path d="M49.2349 75.0974L47.7302 79.1484H4.07801C1.82615 79.1484 0 80.922 0 83.1094L7.83457 133.539C7.83457 135.726 9.66072 137.5 11.9126 137.5H105.118C107.37 137.5 109.196 135.726 109.196 133.539L114 76.4396C114 74.2522 112.174 72.4786 109.922 72.4786H53.0714C51.353 72.4786 49.8187 73.5247 49.2349 75.0956V75.0974Z" fill="#BEC0CC"/>
</g>
<defs>
<clipPath id="clip0_2004_1886">
<rect width="114" height="137" fill="white" transform="translate(0 0.5)"/>
</clipPath>
</defs>
</svg>
