<svg width="134" height="188" viewBox="0 0 134 188" fill="none" xmlns="http://www.w3.org/2000/svg">
<path d="M131.417 32.4948V167.966C131.417 178.56 122.829 187.148 112.236 187.148H20.1675C9.57415 187.148 0.98584 178.56 0.98584 167.966V20.2741C0.98584 9.68078 9.57415 1.09247 20.1675 1.09247H102.837L131.417 32.4948Z" fill="white"/>
<g filter="url(#filter0_d_2393_505)">
<path d="M131.416 32.4774V32.7234H122.209C111.616 32.7234 103.028 24.1361 103.028 13.5428V1.28497L131.416 32.4774Z" fill="white"/>
</g>
<path d="M17.1127 21.0618V30.0134H15.153V21.0618H17.1127ZM20.916 30.0134H18.9805V21.0618H20.916L24.6902 26.7593V21.0618H26.6257V30.0134H24.6902L20.916 24.3279V30.0134ZM31.0305 30.0134L27.6797 21.0618H29.7724L31.466 25.5859C31.6716 26.1424 31.841 26.6989 32.0345 27.473C32.2644 26.6142 32.4337 26.1182 32.6273 25.5859L34.2966 21.0618H36.341L33.0507 30.0134H31.0305ZM45.1872 25.5255C45.1872 28.2593 43.3848 30.1585 40.784 30.1585C38.1953 30.1585 36.417 28.2714 36.417 25.5376C36.417 22.8037 38.2074 20.9045 40.7961 20.9045C43.3969 20.9045 45.1872 22.7916 45.1872 25.5255ZM43.1187 25.5255C43.1187 23.8198 42.2477 22.7916 40.8082 22.7916C39.3566 22.7916 38.4856 23.8198 38.4856 25.5255C38.4856 27.2432 39.3566 28.2714 40.8082 28.2714C42.2477 28.2714 43.1187 27.219 43.1187 25.5255ZM48.5123 21.0618V30.0134H46.5526V21.0618H48.5123ZM54.2511 30.1585C51.5656 30.1585 49.8842 28.3803 49.8842 25.5497C49.8842 22.7553 51.6624 20.9166 54.3358 20.9166C56.5737 20.9166 58.1825 22.1989 58.4608 24.2069H56.3922C56.1261 23.3118 55.364 22.8037 54.2874 22.8037C52.8358 22.8037 51.9527 23.8319 51.9527 25.5376C51.9527 27.219 52.8479 28.2714 54.2874 28.2714C55.3882 28.2714 56.1987 27.7271 56.4406 26.844H58.4729C58.1583 28.84 56.489 30.1585 54.2511 30.1585ZM65.4689 30.0134H59.7835V21.0618H65.4689V22.8763H61.7431V24.6303H65.0456V26.348H61.7431V28.1989H65.4689V30.0134Z" fill="#515151"/>
<rect x="14.2216" y="38.3038" width="101.275" height="0.959045" fill="#D9D9D9"/>
<rect x="14.2216" y="45.9759" width="45.267" height="5.37065" rx="1.91809" fill="#D9D9D9"/>
<rect x="14.2216" y="136.511" width="45.267" height="4.98703" rx="1.91809" fill="#D9D9D9"/>
<rect opacity="0.6" x="14.2216" y="69.1848" width="45.267" height="9.20683" rx="1.91809" fill="#4F94FB"/>
<rect x="88.0675" y="69.1848" width="27.4288" height="9.20683" rx="1.91809" fill="#D9D9D9"/>
<rect x="88.0675" y="89.517" width="27.4288" height="9.20683" rx="1.91809" fill="#D9D9D9"/>
<rect x="88.0675" y="109.848" width="27.4288" height="9.20683" rx="1.91809" fill="#D9D9D9"/>
<rect opacity="0.6" x="14.2216" y="109.848" width="45.267" height="9.20683" rx="1.91809" fill="#4F94FB"/>
<rect opacity="0.6" x="14.2216" y="89.517" width="25.7025" height="9.20683" rx="1.91809" fill="#4F94FB"/>
<rect x="70.2296" y="45.9759" width="45.267" height="5.37065" rx="1.91809" fill="#D9D9D9"/>
<rect x="14.2216" y="60.554" width="101.275" height="0.959045" fill="#D9D9D9"/>
<rect x="14.2216" y="130.18" width="101.275" height="0.959045" fill="#D9D9D9"/>
<path opacity="0.3" d="M92.2206 172.871L96.4023 170.903C96.4685 171.257 96.5698 171.587 96.7034 171.871C97.1814 172.886 98.0906 173.344 99.2827 172.783C100.733 172.1 101.425 170.526 101.416 168.543L110.151 164.431C110.372 164.327 110.468 164.074 110.364 163.853C110.26 163.632 110.007 163.551 109.786 163.655L101.366 167.619C101.233 166.418 100.877 165.106 100.304 163.774C100.67 163.492 101.065 163.251 101.484 163.056C101.704 162.953 101.875 162.988 101.952 163.152C102.21 163.7 102.116 164.269 102.374 164.818C102.6 165.297 103.09 165.42 103.55 165.204C104.83 164.601 105.345 161.685 105.856 161.445C106.323 161.225 106.669 163.466 108.258 162.718C108.517 162.596 108.818 162.37 109 162.084C109.101 161.906 109.137 161.704 109.045 161.508C108.932 161.268 108.688 161.144 108.436 161.263C108.216 161.367 108.119 161.636 107.904 161.737C107.223 162.057 106.887 159.658 105.632 160.248C104.535 160.765 103.822 163.704 103.387 163.909C103.331 163.936 103.272 163.925 103.236 163.849C103.129 163.622 103.173 162.978 102.932 162.467C102.635 161.836 101.922 161.679 101.102 162.065C100.654 162.276 100.233 162.528 99.8493 162.809C98.146 159.55 95.3375 157.675 92.9283 158.809C91.3073 159.572 90.7088 161.541 91.5372 163.301C92.505 165.357 94.6699 166.487 96.8844 166.87C96.488 167.943 96.303 169.039 96.3207 169.994L91.8555 172.096C91.6348 172.2 91.5354 172.447 91.6393 172.667C91.7431 172.888 92 172.975 92.2206 172.871ZM92.4958 162.85C91.9169 161.62 92.3012 160.276 93.3796 159.768C95.2715 158.878 97.6022 160.654 99.0188 163.516C98.2909 164.228 97.7128 165.063 97.284 165.935C95.5444 165.644 93.4191 164.811 92.4958 162.85ZM91.0398 170.838C91.2808 170.925 91.524 170.803 91.6203 170.565L92.0374 169.406L93.197 169.823C93.438 169.91 93.6904 169.791 93.7772 169.55C93.8639 169.309 93.745 169.057 93.5039 168.97L92.348 168.559L92.7651 167.399C92.8518 167.159 92.736 166.912 92.4948 166.825C92.2509 166.732 92.0014 166.857 91.9147 167.098L91.4946 168.252L90.338 167.84C90.0873 167.75 89.8416 167.866 89.7575 168.113C89.6708 168.354 89.7896 168.607 90.0278 168.688L91.1877 169.105L90.7676 170.258C90.6837 170.505 90.7995 170.751 91.0406 170.838M98.634 167.018C98.7337 167.017 98.8182 167 98.8938 166.965C99.1526 166.843 99.2401 166.555 99.1392 166.341C99.0649 166.183 98.9182 166.067 98.6938 166.065C98.5816 166.063 98.4695 166.059 98.3574 166.054C98.667 165.502 99.0413 164.99 99.4723 164.528C99.9697 165.78 100.265 167.013 100.339 168.103L97.3367 169.516C97.3733 168.743 97.5599 167.862 97.9142 166.994C98.1537 167.013 98.3938 167.015 98.634 167.018ZM97.6019 171.225C97.498 171.004 97.4199 170.74 97.38 170.443L100.344 169.047C100.269 170.362 99.8093 171.364 98.9389 171.774C98.3337 172.059 97.8691 171.792 97.6019 171.225Z" fill="black"/>
<defs>
<filter id="filter0_d_2393_505" x="101.11" y="0.134118" width="32.2239" height="35.2747" filterUnits="userSpaceOnUse" color-interpolation-filters="sRGB">
<feFlood flood-opacity="0" result="BackgroundImageFix"/>
<feColorMatrix in="SourceAlpha" type="matrix" values="0 0 0 0 0 0 0 0 0 0 0 0 0 0 0 0 0 0 127 0" result="hardAlpha"/>
<feOffset dy="0.767237"/>
<feGaussianBlur stdDeviation="0.959046"/>
<feComposite in2="hardAlpha" operator="out"/>
<feColorMatrix type="matrix" values="0 0 0 0 0 0 0 0 0 0 0 0 0 0 0 0 0 0 0.25 0"/>
<feBlend mode="normal" in2="BackgroundImageFix" result="effect1_dropShadow_2393_505"/>
<feBlend mode="normal" in="SourceGraphic" in2="effect1_dropShadow_2393_505" result="shape"/>
</filter>
</defs>
</svg>
