<svg width="42" height="24" viewBox="0 0 42 24" fill="none" xmlns="http://www.w3.org/2000/svg">
<path d="M36.4467 1.32846L2.28156 11.3409C2.18003 11.3703 2.12168 11.4769 2.15154 11.5784L5.36421 22.5409C5.39361 22.642 5.50066 22.7003 5.60219 22.6709L39.7673 12.6585C39.8688 12.6286 39.9267 12.522 39.8969 12.421L36.6842 1.45848C36.6543 1.35741 36.5482 1.29906 36.4467 1.32846ZM39.3869 12.2969L5.72531 22.1619L2.66011 11.7029L36.3222 1.83795L39.3869 12.2969ZM36.075 0.0614043L1.90989 10.0738C1.10822 10.3086 0.649264 11.1484 0.884483 11.9501L4.09669 22.9126C4.33191 23.7142 5.17172 24.1736 5.97293 23.9384L40.1385 13.926C40.9393 13.6912 41.3987 12.851 41.1639 12.0502L37.9512 1.08727C37.7165 0.285591 36.8767 -0.173355 36.075 0.0614043ZM40.1385 12.3502C40.2074 12.585 40.0728 12.8317 39.838 12.9006L5.67294 22.913C5.43772 22.9815 5.19101 22.8469 5.12256 22.6121L1.90989 11.6496C1.84144 11.4149 1.97651 11.1682 2.21081 11.0992L36.3759 1.08681C36.6102 1.01836 36.8574 1.15296 36.9258 1.38772L40.1385 12.3502Z" fill="#57B543"/>
<path d="M9.49819 17.1465L10.128 16.9619L9.05026 13.2824L8.44016 13.4611L8.02209 12.0356L10.6522 11.2652C10.6812 11.2564 10.7142 11.2468 10.7492 11.2367C10.7841 11.2266 10.813 11.2178 10.8355 11.2114C10.859 11.2045 10.892 11.1949 10.9352 11.1825C11.1112 11.1333 11.2862 11.0818 11.4603 11.0286C11.6344 10.9743 11.8076 10.9298 11.9808 10.8958C12.1531 10.8618 12.3217 10.8305 12.4871 10.8044C12.6511 10.7777 12.8128 10.7681 12.9718 10.774C13.1298 10.7809 13.2805 10.7988 13.4239 10.8301C13.5677 10.8609 13.7064 10.9155 13.8401 10.9932C13.9747 11.0708 14.0978 11.1673 14.2099 11.2812C14.3229 11.3965 14.4272 11.5417 14.5242 11.7181C14.622 11.8941 14.7047 12.0958 14.7745 12.3246C14.8967 12.7215 14.9376 13.0826 14.8977 13.4088C14.8572 13.735 14.7415 14.0184 14.5503 14.2587C14.3592 14.499 14.1153 14.7048 13.819 14.8766C13.5226 15.048 13.1684 15.194 12.7563 15.3149C12.5652 15.3709 12.3589 15.4169 12.138 15.4522L12.3865 16.3003L12.9769 16.1276L13.4014 17.5775L9.92452 18.5965L9.49819 17.1465ZM11.7511 14.136L11.917 14.0873C12.528 13.9082 12.754 13.5484 12.5965 13.0072C12.5257 12.7651 12.4017 12.608 12.2257 12.5363C12.0498 12.4656 11.8568 12.4605 11.6469 12.5216L11.3078 12.6213L11.7511 14.136Z" fill="#57B543"/>
<path d="M21.7047 13.1838C21.7515 13.2614 21.7883 13.3193 21.8149 13.3579C21.8429 13.3965 21.876 13.4282 21.9155 13.453C21.955 13.4778 21.9945 13.4842 22.035 13.4727L22.3823 13.3708L22.8077 14.8207L19.4715 15.7983L19.0424 14.3493L19.527 14.2073C19.398 13.7663 19.2427 13.5715 19.0621 13.6243L17.9522 13.9496C17.9173 13.9597 17.8938 13.9822 17.8833 14.0158C17.8736 14.0498 17.8709 14.0819 17.8768 14.1122C17.8833 14.1426 17.892 14.1867 17.9062 14.2441C17.9288 14.3194 17.9683 14.4012 18.0266 14.4899C18.085 14.5781 18.1415 14.6135 18.198 14.5969L18.537 14.4977L18.9624 15.9476L16.2239 16.7502L15.7994 15.3003C15.9179 15.2658 16.0194 15.224 16.1044 15.1758C16.3001 15.0632 16.4113 14.8914 16.4407 14.6608C16.4513 14.5873 16.4513 14.3989 16.4416 14.0948L16.3323 11.1486L15.4764 11.3994L15.0583 9.97385L19.0727 8.7973L21.7047 13.1838ZM18.69 12.638L17.6159 10.7245L17.7647 12.909L18.69 12.638Z" fill="#57B543"/>
<path d="M25.4733 8.4694L24.8793 8.64306L25.958 12.3225L26.5277 12.1557L26.9522 13.6056L23.4707 14.626L23.0462 13.1761L23.6393 13.0024L22.5616 9.32299L21.9836 9.49206L21.5656 8.06696L25.0552 7.04431L25.4733 8.4694Z" fill="#57B543"/>
<path d="M27.5737 11.8489L28.2325 11.656L27.1529 7.97243L26.4702 8.17273L26.054 6.75131L29.4063 5.76908C30.5153 5.44382 31.4268 5.47736 32.1412 5.86877C32.8556 6.26019 33.3687 6.98928 33.6811 8.05512C33.8102 8.49432 33.858 8.93214 33.8249 9.36812C33.7928 9.80456 33.682 10.2167 33.4946 10.603C33.3062 10.9898 33.02 11.3381 32.6332 11.6468C32.2473 11.956 31.7824 12.1898 31.2389 12.3492L27.9996 13.2984L27.5737 11.8489ZM30.5833 10.9673C30.7799 10.9099 30.9412 10.8212 31.068 10.7004C31.1952 10.58 31.2862 10.4464 31.339 10.3012C31.3937 10.1555 31.4236 9.98924 31.4305 9.80456C31.4387 9.62033 31.4277 9.44346 31.4011 9.27578C31.374 9.10901 31.334 8.93489 31.2807 8.7548C31.2269 8.56874 31.1686 8.40106 31.1075 8.25037C31.0455 8.10106 30.9646 7.94807 30.8654 7.79325C30.7657 7.63843 30.6573 7.51439 30.5397 7.42159C30.422 7.32879 30.2778 7.26585 30.1073 7.23277C29.9369 7.19924 29.7522 7.21164 29.5528 7.26998L29.3626 7.32603L30.4423 11.0096L30.5833 10.9673Z" fill="#57B543"/>
</svg>
