<svg width="24" height="24" viewBox="0 0 24 24" fill="none" xmlns="http://www.w3.org/2000/svg">
<rect width="24" height="24" rx="12" fill="#FFAE00" fill-opacity="0.2"/>
<path d="M18.75 11.625V16.6875C18.75 17.205 18.33 17.625 17.8125 17.625C17.295 17.625 16.875 17.205 16.875 16.6875V10.5H17.625C18.246 10.5 18.75 11.004 18.75 11.625ZM17.25 18.75H7.5C6 18.75 5.25 18 5.25 16.5V7.5C5.25 6 6 5.25 7.5 5.25H13.5C15 5.25 15.75 6 15.75 7.5V17.25C15.75 18.078 16.4213 18.75 17.25 18.75ZM7.6875 8.46753C7.6875 8.77878 7.78874 9.08329 7.97099 9.32254C8.15774 9.57154 8.42475 9.75147 8.72475 9.82947L9.42151 10.0095C9.53626 10.0395 9.61652 10.152 9.61652 10.2825C9.61652 10.3875 9.56552 10.4558 9.53627 10.4865C9.50327 10.521 9.44626 10.5623 9.36676 10.5623H9.06299C8.93849 10.5623 8.82974 10.4527 8.81474 10.314C8.78099 10.005 8.50727 9.78228 8.19452 9.81528C7.88552 9.84828 7.66274 10.1265 7.69574 10.4355C7.75649 10.9995 8.13901 11.4495 8.64226 11.6153V11.625C8.64226 11.9355 8.89426 12.1875 9.20476 12.1875C9.51526 12.1875 9.76726 11.9355 9.76726 11.625V11.6198C9.98251 11.5523 10.1813 11.4375 10.3455 11.268C10.6005 11.0025 10.7407 10.653 10.7407 10.2833C10.7407 9.64129 10.3155 9.08176 9.70427 8.92126L9.00673 8.74127C8.93923 8.72327 8.89573 8.68048 8.86798 8.64523C8.83273 8.59873 8.81177 8.53426 8.81177 8.46826C8.81177 8.31376 8.92348 8.18774 9.06148 8.18774H9.36525C9.49125 8.18774 9.5985 8.29429 9.61349 8.43604C9.64649 8.74504 9.91801 8.96547 10.2338 8.93472C10.5428 8.90172 10.7655 8.62354 10.7325 8.31454C10.671 7.74379 10.2795 7.28999 9.76648 7.12949V7.12573C9.76648 6.81523 9.51448 6.56323 9.20398 6.56323C8.89348 6.56323 8.64148 6.81523 8.64148 7.12573V7.13699C8.09023 7.31924 7.6875 7.84353 7.6875 8.46753ZM11.0625 15.75C11.0625 15.4395 10.8105 15.1875 10.5 15.1875H8.25C7.9395 15.1875 7.6875 15.4395 7.6875 15.75C7.6875 16.0605 7.9395 16.3125 8.25 16.3125H10.5C10.8105 16.3125 11.0625 16.0605 11.0625 15.75ZM13.3125 13.5C13.3125 13.1895 13.0605 12.9375 12.75 12.9375H8.25C7.9395 12.9375 7.6875 13.1895 7.6875 13.5C7.6875 13.8105 7.9395 14.0625 8.25 14.0625H12.75C13.0605 14.0625 13.3125 13.8105 13.3125 13.5Z" fill="#FFAE00"/>
</svg>
