<svg width="18" height="18" viewBox="0 0 18 18" fill="none" xmlns="http://www.w3.org/2000/svg">
<path d="M15.7079 8.11427C15.5294 8.31977 15.2707 8.43754 14.9999 8.43754H10.4939C9.98019 8.43754 9.56244 8.01983 9.56244 7.50608V3.00004C9.56244 2.72854 9.68019 2.47058 9.88644 2.29133C10.0897 2.11508 10.3627 2.03476 10.6214 2.07151C13.3627 2.45476 15.5444 4.63655 15.9284 7.37855C15.9652 7.64255 15.8849 7.91102 15.7079 8.11427ZM14.2357 10.2023C14.0624 9.99006 13.806 9.86778 13.5322 9.86778H9.06892C8.55217 9.86778 8.13142 9.44703 8.13142 8.93028V4.46708C8.13142 4.19408 8.00991 3.9375 7.79766 3.7635C7.59216 3.5955 7.32518 3.52875 7.06868 3.57975C5.45468 3.9045 4.00419 4.88326 3.09144 6.26701C2.16819 7.66576 1.8517 9.35932 2.20045 11.0341C2.6917 13.3921 4.60643 15.306 6.96518 15.798C7.40993 15.891 7.8562 15.9368 8.29795 15.9368C9.51895 15.9368 10.7047 15.5866 11.7315 14.9086C13.1152 13.9951 14.0939 12.5453 14.4187 10.9313C14.4719 10.674 14.4052 10.4078 14.2357 10.2023Z" fill="#BEC0CC"/>
</svg>
