<svg width="277" height="277" viewBox="0 0 277 277" fill="none" xmlns="http://www.w3.org/2000/svg">
<path d="M40.5057 40.5057C53.3476 27.6638 68.5931 17.4771 85.3718 10.5271C102.151 3.57711 120.134 -2.1657e-07 138.295 0V138.295L40.5057 40.5057Z" fill="#E5EAFC"/>
<path d="M0.97375 121.913C4.74125 90.3325 19.2785 61.0158 42.1362 38.9019L138.295 138.295L0.97375 121.913Z" fill="#C6D2FD"/>
<path d="M69.5563 258.297C45.9708 244.787 26.8893 224.626 14.696 200.334C2.50275 176.041 -2.26163 148.694 0.998152 121.709L138.295 138.295L69.5563 258.297Z" fill="#93AAFD"/>
<path d="M236.084 236.084C220.003 252.166 200.203 264.033 178.44 270.635C156.677 277.237 133.621 278.37 111.315 273.933C89.0093 269.496 68.142 259.626 50.5616 245.199C32.9812 230.771 19.2304 212.23 10.5271 191.218C1.82381 170.207 -1.56325 147.373 0.665929 124.74C2.89511 102.107 10.6717 80.3723 23.3069 61.4624C35.9421 42.5525 53.0459 27.0506 73.1032 16.3297C93.1605 5.60884 115.552 -2.71205e-07 138.295 0V138.295L236.084 236.084Z" fill="url(#paint0_linear_2001_100)"/>
<path d="M236.084 236.084C255.425 216.743 268.597 192.102 273.933 165.275C279.269 138.448 276.53 110.642 266.063 85.3718C255.596 60.1017 237.87 38.503 215.128 23.3069C192.385 8.11087 165.647 2.06503e-06 138.295 0L138.295 138.295L236.084 236.084Z" fill="url(#paint1_linear_2001_100)"/>
<path d="M173.887 141.66C175.675 141.66 176.803 142.692 176.803 144.288C176.803 145.872 175.663 146.916 173.887 146.916H172.267V150H170.479V141.66H173.887ZM173.791 145.356C174.583 145.356 174.991 144.912 174.991 144.288C174.991 143.664 174.583 143.22 173.791 143.22H172.267V145.356H173.791ZM184.871 150H182.819L179.603 146.136V150H177.815V141.66H179.603V145.32L182.699 141.66H184.751L181.367 145.704L184.871 150ZM190.061 150L187.685 146.58H187.337V150H185.573V141.66H188.981C190.769 141.66 191.897 142.692 191.897 144.12C191.897 145.392 190.997 146.34 189.557 146.544L192.041 150H190.061ZM187.337 143.22V145.32H188.933C189.713 145.32 190.157 144.912 190.157 144.276C190.157 143.628 189.713 143.22 188.933 143.22H187.337ZM196.208 146.4C195.644 146.4 195.212 145.968 195.212 145.404C195.212 144.828 195.644 144.396 196.208 144.396C196.772 144.396 197.204 144.828 197.204 145.404C197.204 145.968 196.772 146.4 196.208 146.4ZM196.208 150.12C195.644 150.12 195.212 149.688 195.212 149.136C195.212 148.548 195.644 148.116 196.208 148.116C196.772 148.116 197.204 148.548 197.204 149.136C197.204 149.688 196.772 150.12 196.208 150.12ZM203.41 144.66C205.33 144.66 206.566 145.728 206.566 147.396C206.566 149.016 205.366 150.156 203.362 150.156C201.838 150.156 200.734 149.484 200.278 148.176L201.898 147.528C202.09 148.26 202.678 148.644 203.386 148.644C204.226 148.644 204.754 148.104 204.754 147.372C204.754 146.628 204.226 146.052 203.35 146.052H201.07L201.31 141.66H206.002V143.052H202.822L202.726 144.66H203.41ZM211.212 150.144C208.944 150.144 207.48 148.5 207.48 145.812C207.48 143.076 208.944 141.516 211.212 141.516C213.492 141.516 214.956 143.076 214.956 145.812C214.956 148.5 213.468 150.144 211.212 150.144ZM211.212 148.464C212.364 148.464 213.144 147.528 213.144 145.836C213.144 144.132 212.364 143.208 211.212 143.208C210.06 143.208 209.292 144.132 209.292 145.836C209.292 147.54 210.06 148.464 211.212 148.464ZM216.513 148.104C217.065 148.104 217.509 148.524 217.509 149.124C217.509 149.424 217.413 149.736 217.209 150.132L216.537 151.476H215.553L216.273 150.024C215.829 149.94 215.529 149.616 215.529 149.1C215.529 148.524 215.973 148.104 216.513 148.104ZM221.222 144.66C223.142 144.66 224.378 145.728 224.378 147.396C224.378 149.016 223.178 150.156 221.174 150.156C219.65 150.156 218.546 149.484 218.09 148.176L219.71 147.528C219.902 148.26 220.49 148.644 221.198 148.644C222.038 148.644 222.566 148.104 222.566 147.372C222.566 146.628 222.038 146.052 221.162 146.052H218.882L219.122 141.66H223.814V143.052H220.634L220.538 144.66H221.222ZM229.853 145.608C230.801 145.944 231.461 146.736 231.461 147.732C231.461 149.184 230.153 150.156 228.365 150.156C226.565 150.156 225.257 149.184 225.257 147.732C225.257 146.724 225.881 145.932 226.805 145.596C226.121 145.284 225.605 144.648 225.605 143.724C225.605 142.488 226.577 141.516 228.365 141.516C230.129 141.516 231.113 142.476 231.113 143.736C231.113 144.66 230.597 145.296 229.853 145.608ZM228.365 142.956C227.717 142.956 227.285 143.364 227.285 143.964C227.285 144.552 227.729 144.984 228.365 144.984C228.989 144.984 229.433 144.552 229.433 143.964C229.433 143.364 229.001 142.956 228.365 142.956ZM228.365 148.716C229.169 148.716 229.685 148.212 229.685 147.516C229.685 146.82 229.157 146.304 228.365 146.304C227.561 146.304 227.033 146.82 227.033 147.516C227.033 148.212 227.549 148.716 228.365 148.716ZM232.024 141.672H237.736V143.004L234.988 150H233.008L235.756 143.148H232.024V141.672ZM241.224 144.396C243 144.432 244.296 145.512 244.296 147.216C244.296 148.992 242.904 150.156 241.104 150.156C239.292 150.156 237.888 148.98 237.888 147.228C237.888 146.28 238.308 145.584 238.668 145.104L241.236 141.66H243.3L241.224 144.396ZM241.104 148.632C241.896 148.632 242.484 148.032 242.484 147.228C242.484 146.412 241.896 145.824 241.104 145.824C240.312 145.824 239.7 146.412 239.7 147.228C239.7 148.032 240.312 148.632 241.104 148.632ZM245.997 150.12C245.433 150.12 245.001 149.688 245.001 149.136C245.001 148.548 245.433 148.116 245.997 148.116C246.561 148.116 246.993 148.548 246.993 149.136C246.993 149.688 246.561 150.12 245.997 150.12ZM251.326 150.144C249.058 150.144 247.594 148.5 247.594 145.812C247.594 143.076 249.058 141.516 251.326 141.516C253.606 141.516 255.07 143.076 255.07 145.812C255.07 148.5 253.582 150.144 251.326 150.144ZM251.326 148.464C252.478 148.464 253.258 147.528 253.258 145.836C253.258 144.132 252.478 143.208 251.326 143.208C250.174 143.208 249.406 144.132 249.406 145.836C249.406 147.54 250.174 148.464 251.326 148.464ZM259.775 150.144C257.507 150.144 256.043 148.5 256.043 145.812C256.043 143.076 257.507 141.516 259.775 141.516C262.055 141.516 263.519 143.076 263.519 145.812C263.519 148.5 262.031 150.144 259.775 150.144ZM259.775 148.464C260.927 148.464 261.707 147.528 261.707 145.836C261.707 144.132 260.927 143.208 259.775 143.208C258.623 143.208 257.855 144.132 257.855 145.836C257.855 147.54 258.623 148.464 259.775 148.464Z" fill="white"/>
<path d="M19.3518 115.66C21.1398 115.66 22.2678 116.692 22.2678 118.288C22.2678 119.872 21.1278 120.916 19.3518 120.916H17.7318V124H15.9438V115.66H19.3518ZM19.2558 119.356C20.0478 119.356 20.4558 118.912 20.4558 118.288C20.4558 117.664 20.0478 117.22 19.2558 117.22H17.7318V119.356H19.2558ZM30.3357 124H28.2837L25.0677 120.136V124H23.2797V115.66H25.0677V119.32L28.1637 115.66H30.2157L26.8317 119.704L30.3357 124ZM35.5255 124L33.1495 120.58H32.8015V124H31.0375V115.66H34.4455C36.2335 115.66 37.3615 116.692 37.3615 118.12C37.3615 119.392 36.4615 120.34 35.0215 120.544L37.5055 124H35.5255ZM32.8015 117.22V119.32H34.3975C35.1775 119.32 35.6215 118.912 35.6215 118.276C35.6215 117.628 35.1775 117.22 34.3975 117.22H32.8015ZM41.6727 120.4C41.1087 120.4 40.6767 119.968 40.6767 119.404C40.6767 118.828 41.1087 118.396 41.6727 118.396C42.2367 118.396 42.6687 118.828 42.6687 119.404C42.6687 119.968 42.2367 120.4 41.6727 120.4ZM41.6727 124.12C41.1087 124.12 40.6767 123.688 40.6767 123.136C40.6767 122.548 41.1087 122.116 41.6727 122.116C42.2367 122.116 42.6687 122.548 42.6687 123.136C42.6687 123.688 42.2367 124.12 41.6727 124.12ZM49.1985 122.524H50.1945V124H46.0785V122.524H47.4225V118.312H46.1025V116.848H47.4225V115.66H49.1985V122.524ZM54.6029 124.144C52.3349 124.144 50.8709 122.5 50.8709 119.812C50.8709 117.076 52.3349 115.516 54.6029 115.516C56.8829 115.516 58.3469 117.076 58.3469 119.812C58.3469 122.5 56.8589 124.144 54.6029 124.144ZM54.6029 122.464C55.7549 122.464 56.5349 121.528 56.5349 119.836C56.5349 118.132 55.7549 117.208 54.6029 117.208C53.4509 117.208 52.6829 118.132 52.6829 119.836C52.6829 121.54 53.4509 122.464 54.6029 122.464ZM62.1401 118.66C64.0601 118.66 65.2961 119.728 65.2961 121.396C65.2961 123.016 64.0961 124.156 62.0921 124.156C60.5681 124.156 59.4641 123.484 59.0081 122.176L60.6281 121.528C60.8201 122.26 61.4081 122.644 62.1161 122.644C62.9561 122.644 63.4841 122.104 63.4841 121.372C63.4841 120.628 62.9561 120.052 62.0801 120.052H59.8001L60.0401 115.66H64.7321V117.052H61.5521L61.4561 118.66H62.1401ZM69.9428 124.144C67.6748 124.144 66.2108 122.5 66.2108 119.812C66.2108 117.076 67.6748 115.516 69.9428 115.516C72.2228 115.516 73.6868 117.076 73.6868 119.812C73.6868 122.5 72.1988 124.144 69.9428 124.144ZM69.9428 122.464C71.0948 122.464 71.8748 121.528 71.8748 119.836C71.8748 118.132 71.0948 117.208 69.9428 117.208C68.7908 117.208 68.0228 118.132 68.0228 119.836C68.0228 121.54 68.7908 122.464 69.9428 122.464ZM75.243 122.104C75.795 122.104 76.239 122.524 76.239 123.124C76.239 123.424 76.143 123.736 75.939 124.132L75.267 125.476H74.283L75.003 124.024C74.559 123.94 74.259 123.616 74.259 123.1C74.259 122.524 74.703 122.104 75.243 122.104ZM81.6926 119.608C82.6406 119.944 83.3006 120.736 83.3006 121.732C83.3006 123.184 81.9926 124.156 80.2046 124.156C78.4046 124.156 77.0966 123.184 77.0966 121.732C77.0966 120.724 77.7206 119.932 78.6446 119.596C77.9606 119.284 77.4446 118.648 77.4446 117.724C77.4446 116.488 78.4166 115.516 80.2046 115.516C81.9686 115.516 82.9526 116.476 82.9526 117.736C82.9526 118.66 82.4366 119.296 81.6926 119.608ZM80.2046 116.956C79.5566 116.956 79.1246 117.364 79.1246 117.964C79.1246 118.552 79.5686 118.984 80.2046 118.984C80.8286 118.984 81.2726 118.552 81.2726 117.964C81.2726 117.364 80.8406 116.956 80.2046 116.956ZM80.2046 122.716C81.0086 122.716 81.5246 122.212 81.5246 121.516C81.5246 120.82 80.9966 120.304 80.2046 120.304C79.4006 120.304 78.8726 120.82 78.8726 121.516C78.8726 122.212 79.3886 122.716 80.2046 122.716ZM87.9662 124.144C85.6982 124.144 84.2342 122.5 84.2342 119.812C84.2342 117.076 85.6982 115.516 87.9662 115.516C90.2462 115.516 91.7102 117.076 91.7102 119.812C91.7102 122.5 90.2222 124.144 87.9662 124.144ZM87.9662 122.464C89.1182 122.464 89.8982 121.528 89.8982 119.836C89.8982 118.132 89.1182 117.208 87.9662 117.208C86.8142 117.208 86.0462 118.132 86.0462 119.836C86.0462 121.54 86.8142 122.464 87.9662 122.464ZM99.1154 120.856V122.248H98.2034V124H96.4394V122.248H92.4074V120.952L96.4514 115.672H98.2034V120.856H99.1154ZM96.4514 120.856V117.952L94.2434 120.856H96.4514ZM104.556 119.608C105.504 119.944 106.164 120.736 106.164 121.732C106.164 123.184 104.856 124.156 103.068 124.156C101.268 124.156 99.9599 123.184 99.9599 121.732C99.9599 120.724 100.584 119.932 101.508 119.596C100.824 119.284 100.308 118.648 100.308 117.724C100.308 116.488 101.28 115.516 103.068 115.516C104.832 115.516 105.816 116.476 105.816 117.736C105.816 118.66 105.3 119.296 104.556 119.608ZM103.068 116.956C102.42 116.956 101.988 117.364 101.988 117.964C101.988 118.552 102.432 118.984 103.068 118.984C103.692 118.984 104.136 118.552 104.136 117.964C104.136 117.364 103.704 116.956 103.068 116.956ZM103.068 122.716C103.872 122.716 104.388 122.212 104.388 121.516C104.388 120.82 103.86 120.304 103.068 120.304C102.264 120.304 101.736 120.82 101.736 121.516C101.736 122.212 102.252 122.716 103.068 122.716ZM107.997 124.12C107.433 124.12 107.001 123.688 107.001 123.136C107.001 122.548 107.433 122.116 107.997 122.116C108.561 122.116 108.993 122.548 108.993 123.136C108.993 123.688 108.561 124.12 107.997 124.12ZM113.326 124.144C111.058 124.144 109.594 122.5 109.594 119.812C109.594 117.076 111.058 115.516 113.326 115.516C115.606 115.516 117.07 117.076 117.07 119.812C117.07 122.5 115.582 124.144 113.326 124.144ZM113.326 122.464C114.478 122.464 115.258 121.528 115.258 119.836C115.258 118.132 114.478 117.208 113.326 117.208C112.174 117.208 111.406 118.132 111.406 119.836C111.406 121.54 112.174 122.464 113.326 122.464ZM121.775 124.144C119.507 124.144 118.043 122.5 118.043 119.812C118.043 117.076 119.507 115.516 121.775 115.516C124.055 115.516 125.519 117.076 125.519 119.812C125.519 122.5 124.031 124.144 121.775 124.144ZM121.775 122.464C122.927 122.464 123.707 121.528 123.707 119.836C123.707 118.132 122.927 117.208 121.775 117.208C120.623 117.208 119.855 118.132 119.855 119.836C119.855 121.54 120.623 122.464 121.775 122.464Z" fill="white"/>
<defs>
<linearGradient id="paint0_linear_2001_100" x1="92.5" y1="27.5" x2="149" y2="277" gradientUnits="userSpaceOnUse">
<stop stop-color="#FFCD63"/>
<stop offset="1" stop-color="#FFAE00"/>
</linearGradient>
<linearGradient id="paint1_linear_2001_100" x1="145.5" y1="-13" x2="236.5" y2="234" gradientUnits="userSpaceOnUse">
<stop stop-color="#FE9696"/>
<stop offset="1" stop-color="#F26666"/>
</linearGradient>
</defs>
</svg>
