<svg width="18" height="18" viewBox="0 0 18 18" fill="none" xmlns="http://www.w3.org/2000/svg">
<path d="M12.4417 3.38324L11.9445 4.21802C11.8905 4.30877 11.7923 4.36423 11.6865 4.36423H6.31274C6.20699 4.36423 6.10875 4.30877 6.05475 4.21802L5.55675 3.38177C5.25975 2.88227 5.619 2.24927 6.20025 2.24927H11.7968C12.3795 2.25002 12.7395 2.88374 12.4417 3.38324ZM15 11.25C15 12.75 14.25 15.75 9 15.75C3.75 15.75 3 12.75 3 11.25C3 8.75925 4.55324 6.78299 5.77874 5.57474C5.83574 5.51849 5.90999 5.48996 5.98949 5.48996H12.0105C12.09 5.48996 12.165 5.51849 12.2213 5.57474C13.4468 6.78299 15 8.75925 15 11.25ZM10.875 11.7098C10.875 10.938 10.3575 10.266 9.61349 10.0747L8.66476 9.83551C8.54476 9.80401 8.44276 9.73653 8.36476 9.63528C8.29051 9.54003 8.25 9.41697 8.25 9.29022C8.25 8.98047 8.49375 8.72928 8.79375 8.72928H9.207C9.48375 8.72928 9.7155 8.94379 9.747 9.22879C9.78075 9.53779 10.0545 9.75826 10.368 9.72601C10.677 9.69226 10.899 9.41326 10.8652 9.10501C10.7842 8.37226 10.2488 7.79771 9.5625 7.64621V7.5C9.5625 7.1895 9.3105 6.9375 9 6.9375C8.6895 6.9375 8.4375 7.1895 8.4375 7.5V7.64474C7.68825 7.81049 7.125 8.48397 7.125 9.29022C7.125 9.66597 7.25024 10.0335 7.47299 10.3215C7.69874 10.6177 8.02201 10.8315 8.38651 10.9253L9.33524 11.1645C9.57974 11.2275 9.75 11.4518 9.75 11.7098C9.75 11.8598 9.69226 12.0015 9.58651 12.1088C9.48376 12.2138 9.34875 12.2707 9.20625 12.2707H8.793C8.51625 12.2707 8.2845 12.0562 8.253 11.7712C8.2185 11.4622 7.94475 11.2402 7.632 11.274C7.323 11.3077 7.101 11.5867 7.13475 11.895C7.21575 12.6277 7.75125 13.2023 8.4375 13.3538V13.5C8.4375 13.8105 8.6895 14.0625 9 14.0625C9.3105 14.0625 9.5625 13.8105 9.5625 13.5V13.3553C9.873 13.287 10.1588 13.1317 10.3883 12.8985C10.7025 12.5797 10.875 12.1575 10.875 11.7098Z" fill="#3AC4FF"/>
</svg>
