<svg width="24" height="25" viewBox="0 0 24 25" fill="none" xmlns="http://www.w3.org/2000/svg">
<path d="M10.27 21.5C10.27 22.19 9.71002 22.75 9.02002 22.75C8.33102 22.75 7.76501 22.19 7.76501 21.5C7.76501 20.81 8.32001 20.25 9.01001 20.25H9.02002C9.71002 20.25 10.27 20.81 10.27 21.5ZM17.02 20.25H17.01C16.32 20.25 15.765 20.81 15.765 21.5C15.765 22.19 16.33 22.75 17.02 22.75C17.71 22.75 18.27 22.19 18.27 21.5C18.27 20.81 17.71 20.25 17.02 20.25ZM21.705 8.99197L20.691 15.158C20.428 16.604 19.774 18.25 17 18.25H8.73401C7.37501 18.25 6.20396 17.235 6.01196 15.889L4.50195 5.32397C4.41395 4.71197 3.88301 4.25098 3.26501 4.25098H3C2.586 4.25098 2.25 3.91498 2.25 3.50098C2.25 3.08698 2.586 2.75098 3 2.75098H3.26599C4.62499 2.75098 5.79604 3.76597 5.98804 5.11197L6.07996 5.75098H19C19.818 5.75098 20.5881 6.11097 21.1121 6.73897C21.6351 7.36597 21.852 8.18797 21.705 8.99197ZM19.959 7.69897C19.721 7.41397 19.371 7.24997 18.999 7.24997H6.29297L7.49695 15.677C7.58495 16.289 8.11601 16.75 8.73401 16.75H17C18.597 16.75 18.986 16.154 19.213 14.903L20.2271 8.73596C20.2961 8.35796 20.197 7.98397 19.959 7.69897ZM15.5 11.25H14.25V9.99997C14.25 9.58597 13.914 9.24997 13.5 9.24997C13.086 9.24997 12.75 9.58597 12.75 9.99997V11.25H11.5C11.086 11.25 10.75 11.586 10.75 12C10.75 12.414 11.086 12.75 11.5 12.75H12.75V14C12.75 14.414 13.086 14.75 13.5 14.75C13.914 14.75 14.25 14.414 14.25 14V12.75H15.5C15.914 12.75 16.25 12.414 16.25 12C16.25 11.586 15.914 11.25 15.5 11.25Z" fill="#8D8F99"/>
</svg>
