<svg width="24" height="24" viewBox="0 0 24 24" fill="none" xmlns="http://www.w3.org/2000/svg">
<rect width="24" height="24" rx="12" fill="#79D66F" fill-opacity="0.2"/>
<path d="M15.75 5.25H8.25C6.75 5.25 6 6 6 7.5V16.9658C6 17.5838 6.70573 17.9362 7.19998 17.5657L8.21924 16.8015C8.66699 16.4655 9.29403 16.5105 9.69003 16.9057L11.2042 18.42C11.6437 18.8595 12.3563 18.8595 12.795 18.42L14.3092 16.9057C14.7052 16.5097 15.3323 16.4655 15.78 16.8015L16.7993 17.5657C17.2935 17.9362 17.9993 17.5838 17.9993 16.9658V7.5C18 6 17.25 5.25 15.75 5.25ZM9 13.3125C8.6895 13.3125 8.4375 13.0605 8.4375 12.75C8.4375 12.4395 8.6895 12.1875 9 12.1875C9.3105 12.1875 9.5625 12.4395 9.5625 12.75C9.5625 13.0605 9.3105 13.3125 9 13.3125ZM9 10.3125C8.6895 10.3125 8.4375 10.0605 8.4375 9.75C8.4375 9.4395 8.6895 9.1875 9 9.1875C9.3105 9.1875 9.5625 9.4395 9.5625 9.75C9.5625 10.0605 9.3105 10.3125 9 10.3125ZM15 13.3125H11.25C10.9395 13.3125 10.6875 13.0605 10.6875 12.75C10.6875 12.4395 10.9395 12.1875 11.25 12.1875H15C15.3105 12.1875 15.5625 12.4395 15.5625 12.75C15.5625 13.0605 15.3105 13.3125 15 13.3125ZM15 10.3125H11.25C10.9395 10.3125 10.6875 10.0605 10.6875 9.75C10.6875 9.4395 10.9395 9.1875 11.25 9.1875H15C15.3105 9.1875 15.5625 9.4395 15.5625 9.75C15.5625 10.0605 15.3105 10.3125 15 10.3125Z" fill="#3BBB2D"/>
</svg>
