<svg width="18" height="18" viewBox="0 0 18 18" fill="none" xmlns="http://www.w3.org/2000/svg">
<path d="M13.5 9.75C11.8425 9.75 10.5 11.0925 10.5 12.75C10.5 14.4075 11.8425 15.75 13.5 15.75C15.1575 15.75 16.5 14.4075 16.5 12.75C16.5 11.0925 15.1575 9.75 13.5 9.75ZM14.4375 13.125H12.5625C12.3525 13.125 12.1875 12.96 12.1875 12.75C12.1875 12.54 12.3525 12.375 12.5625 12.375H14.4375C14.6475 12.375 14.8125 12.54 14.8125 12.75C14.8125 12.96 14.6475 13.125 14.4375 13.125ZM12.75 3H3.75C2.25 3 1.5 3.75 1.5 5.25V11.25C1.5 12.75 2.25 13.5 3.75 13.5H9.17251C9.30001 13.5 9.40501 13.395 9.40501 13.2675C9.38251 13.095 9.375 12.9225 9.375 12.75C9.375 10.4775 11.2275 8.625 13.5 8.625C13.92 8.625 14.325 8.68499 14.7 8.80499C14.85 8.84999 15 8.74502 15 8.59502V5.25C15 3.75 14.25 3 12.75 3ZM3.75 9C3.3375 9 3 8.6625 3 8.25C3 7.8375 3.3375 7.5 3.75 7.5C4.1625 7.5 4.5 7.8375 4.5 8.25C4.5 8.6625 4.1625 9 3.75 9ZM8.25 10.5C7.005 10.5 6 9.495 6 8.25C6 7.005 7.005 6 8.25 6C9.495 6 10.5 7.005 10.5 8.25C10.5 9.495 9.495 10.5 8.25 10.5Z" fill="#FF9959"/>
</svg>
