<svg width="24" height="24" viewBox="0 0 24 24" fill="none" xmlns="http://www.w3.org/2000/svg">
<rect width="24" height="24" rx="12" fill="#FF9959" fill-opacity="0.2"/>
<path d="M16.5 12.75C14.8425 12.75 13.5 14.0925 13.5 15.75C13.5 17.4075 14.8425 18.75 16.5 18.75C18.1575 18.75 19.5 17.4075 19.5 15.75C19.5 14.0925 18.1575 12.75 16.5 12.75ZM17.4375 16.125H15.5625C15.3525 16.125 15.1875 15.96 15.1875 15.75C15.1875 15.54 15.3525 15.375 15.5625 15.375H17.4375C17.6475 15.375 17.8125 15.54 17.8125 15.75C17.8125 15.96 17.6475 16.125 17.4375 16.125ZM15.75 6H6.75C5.25 6 4.5 6.75 4.5 8.25V14.25C4.5 15.75 5.25 16.5 6.75 16.5H12.1725C12.3 16.5 12.405 16.395 12.405 16.2675C12.3825 16.095 12.375 15.9225 12.375 15.75C12.375 13.4775 14.2275 11.625 16.5 11.625C16.92 11.625 17.325 11.685 17.7 11.805C17.85 11.85 18 11.745 18 11.595V8.25C18 6.75 17.25 6 15.75 6ZM6.75 12C6.3375 12 6 11.6625 6 11.25C6 10.8375 6.3375 10.5 6.75 10.5C7.1625 10.5 7.5 10.8375 7.5 11.25C7.5 11.6625 7.1625 12 6.75 12ZM11.25 13.5C10.005 13.5 9 12.495 9 11.25C9 10.005 10.005 9 11.25 9C12.495 9 13.5 10.005 13.5 11.25C13.5 12.495 12.495 13.5 11.25 13.5Z" fill="#FF9959"/>
</svg>
