<svg width="24" height="24" viewBox="0 0 24 24" fill="none" xmlns="http://www.w3.org/2000/svg">
<rect width="24" height="24" rx="12" fill="#3AC4FF" fill-opacity="0.2"/>
<path d="M15.4417 6.38324L14.9445 7.21802C14.8905 7.30877 14.7923 7.36423 14.6865 7.36423H9.31274C9.20699 7.36423 9.10875 7.30877 9.05475 7.21802L8.55675 6.38177C8.25975 5.88227 8.619 5.24927 9.20025 5.24927H14.7968C15.3795 5.25002 15.7395 5.88374 15.4417 6.38324ZM18 14.25C18 15.75 17.25 18.75 12 18.75C6.75 18.75 6 15.75 6 14.25C6 11.7592 7.55324 9.78299 8.77874 8.57474C8.83574 8.51849 8.90999 8.48996 8.98949 8.48996H15.0105C15.09 8.48996 15.165 8.51849 15.2213 8.57474C16.4468 9.78299 18 11.7592 18 14.25ZM13.875 14.7098C13.875 13.938 13.3575 13.266 12.6135 13.0747L11.6648 12.8355C11.5448 12.804 11.4428 12.7365 11.3648 12.6353C11.2905 12.54 11.25 12.417 11.25 12.2902C11.25 11.9805 11.4938 11.7293 11.7938 11.7293H12.207C12.4838 11.7293 12.7155 11.9438 12.747 12.2288C12.7808 12.5378 13.0545 12.7583 13.368 12.726C13.677 12.6923 13.899 12.4133 13.8652 12.105C13.7842 11.3723 13.2488 10.7977 12.5625 10.6462V10.5C12.5625 10.1895 12.3105 9.9375 12 9.9375C11.6895 9.9375 11.4375 10.1895 11.4375 10.5V10.6447C10.6883 10.8105 10.125 11.484 10.125 12.2902C10.125 12.666 10.2502 13.0335 10.473 13.3215C10.6987 13.6177 11.022 13.8315 11.3865 13.9253L12.3352 14.1645C12.5797 14.2275 12.75 14.4518 12.75 14.7098C12.75 14.8598 12.6923 15.0015 12.5865 15.1088C12.4838 15.2138 12.3487 15.2707 12.2062 15.2707H11.793C11.5162 15.2707 11.2845 15.0562 11.253 14.7712C11.2185 14.4622 10.9447 14.2402 10.632 14.274C10.323 14.3077 10.101 14.5867 10.1348 14.895C10.2158 15.6277 10.7512 16.2023 11.4375 16.3538V16.5C11.4375 16.8105 11.6895 17.0625 12 17.0625C12.3105 17.0625 12.5625 16.8105 12.5625 16.5V16.3553C12.873 16.287 13.1588 16.1317 13.3883 15.8985C13.7025 15.5797 13.875 15.1575 13.875 14.7098Z" fill="#3AC4FF"/>
</svg>
