<svg width="24" height="24" viewBox="0 0 24 24" fill="none" xmlns="http://www.w3.org/2000/svg">
<rect width="24" height="24" rx="12" fill="#6690FF" fill-opacity="0.2"/>
<path d="M6.75 19.5H5.25C4.836 19.5 4.5 19.164 4.5 18.75V15.75C4.5 15.336 4.836 15 5.25 15H6.75C7.164 15 7.5 15.336 7.5 15.75V18.75C7.5 19.164 7.164 19.5 6.75 19.5ZM17.745 15.015C17.5725 15.015 17.4 15.06 17.235 15.1575L15.5325 16.1775C15.375 17.1 14.565 17.8125 13.59 17.8125H11.25C10.9425 17.8125 10.6875 17.5575 10.6875 17.25C10.6875 16.9425 10.9425 16.6875 11.25 16.6875H13.59C14.055 16.6875 14.4375 16.3125 14.4375 15.84C14.4375 15.375 14.055 15 13.59 15H9.75C8.925 15 8.25 15.675 8.25 16.5V18C8.25 18.825 8.925 19.5 9.75 19.5H13.95C14.6325 19.5 15.2925 19.2675 15.825 18.84L18.375 16.8C18.615 16.6125 18.75 16.32 18.75 16.02C18.75 15.435 18.27 15.015 17.745 15.015ZM16.5 8.625C16.5 11.1068 14.4818 13.125 12 13.125C9.51825 13.125 7.5 11.1068 7.5 8.625C7.5 6.14325 9.51825 4.125 12 4.125C14.4818 4.125 16.5 6.14325 16.5 8.625ZM13.6875 9.68399C13.6875 8.97749 13.2195 8.36171 12.5482 8.18546L11.7345 7.97552C11.6512 7.95377 11.5785 7.90421 11.5223 7.82996C11.4675 7.75796 11.4375 7.66426 11.4375 7.56601C11.4375 7.33426 11.61 7.14523 11.823 7.14523H12.1777C12.3727 7.14523 12.5377 7.30577 12.561 7.51877C12.594 7.82777 12.8678 8.04896 13.1813 8.01746C13.4903 7.98446 13.713 7.70628 13.68 7.39728C13.6095 6.74403 13.1482 6.23025 12.5527 6.07425V5.99927C12.5527 5.68877 12.3007 5.43677 11.9902 5.43677C11.6797 5.43677 11.4277 5.68877 11.4277 5.99927V6.08102C10.788 6.26027 10.314 6.85428 10.314 7.56528C10.314 7.90803 10.4258 8.24253 10.6268 8.50653C10.8315 8.77953 11.1248 8.97674 11.454 9.06299L12.2677 9.27301C12.4425 9.31876 12.5647 9.48753 12.5647 9.68253C12.5647 9.79728 12.522 9.90522 12.4447 9.98547C12.402 10.0297 12.312 10.1025 12.1793 10.1025H11.8245C11.6295 10.1025 11.4645 9.94203 11.4413 9.72903C11.4083 9.42003 11.1353 9.19801 10.821 9.23026C10.512 9.26326 10.2893 9.54152 10.3223 9.85052C10.392 10.4948 10.842 11.0033 11.427 11.1668V11.25C11.427 11.5605 11.679 11.8125 11.9895 11.8125C12.3 11.8125 12.552 11.5605 12.552 11.25V11.175C12.8137 11.106 13.056 10.971 13.2525 10.7678C13.533 10.4768 13.6875 10.0912 13.6875 9.68399Z" fill="#6690FF"/>
</svg>
