<svg width="260" height="332" viewBox="0 0 260 332" fill="none" xmlns="http://www.w3.org/2000/svg">
<rect x="0.189453" width="0.5" height="332" fill="#EBECF2"/>
<path d="M10.8455 314.56H6.69345V317.272H10.4375V318.172H6.69345V322H5.67345V313.66H10.8455V314.56ZM12.4224 319.216C12.6024 320.392 13.5264 321.184 14.6904 321.184C15.7224 321.184 16.2984 320.788 16.6104 320.056L17.4984 320.596C17.0304 321.496 16.1544 322.144 14.6544 322.144C12.7104 322.144 11.3904 320.728 11.3904 318.844C11.3904 317.008 12.7944 315.532 14.5824 315.532C16.4904 315.532 17.7024 317.032 17.7024 318.7C17.7024 318.88 17.6904 319.096 17.6784 319.216H12.4224ZM12.4344 318.328H16.6584C16.5024 317.14 15.6744 316.42 14.6184 316.42C13.5504 316.42 12.6264 317.128 12.4344 318.328ZM22.2954 315.544C24.0954 315.544 25.3914 316.96 25.3914 318.832C25.3914 320.728 24.0714 322.132 22.2714 322.132C21.2394 322.132 20.4114 321.652 19.9074 320.848V322H18.9594V313.228H19.9794V316.72C20.4834 315.988 21.2994 315.544 22.2954 315.544ZM22.1634 321.232C23.4354 321.232 24.3714 320.212 24.3714 318.832C24.3714 317.476 23.4234 316.444 22.1634 316.444C20.8434 316.444 19.9314 317.428 19.9314 318.832C19.9314 320.248 20.8554 321.232 22.1634 321.232Z" fill="#8D8F99"/>
<rect x="46.5415" width="0.5" height="332" fill="#EBECF2"/>
<path d="M57.4255 322L56.5615 319.612H53.0335L52.1695 322H51.1495L54.1735 313.66H55.4095L58.4335 322H57.4255ZM53.3455 318.772H56.2495L54.7975 314.752L53.3455 318.772ZM62.7295 315.544C64.5295 315.544 65.8255 316.96 65.8255 318.844C65.8255 320.728 64.5055 322.132 62.7055 322.132C61.7215 322.132 60.9175 321.7 60.4135 320.968V324.148H59.3935V315.676H60.3415V316.84C60.8455 316.036 61.6855 315.544 62.7295 315.544ZM62.5975 321.232C63.8575 321.232 64.8055 320.212 64.8055 318.844C64.8055 317.464 63.8695 316.444 62.5975 316.444C61.2895 316.444 60.3655 317.44 60.3655 318.844C60.3655 320.248 61.2775 321.232 62.5975 321.232ZM68.1113 316.6C68.5193 316.012 69.2393 315.544 70.1273 315.544V316.492C68.9753 316.504 68.1713 317.284 68.1713 318.184V322H67.1513V315.676H68.1113V316.6Z" fill="#8D8F99"/>
<rect x="92.8933" width="0.5" height="332" fill="#EBECF2"/>
<path d="M97.5973 322V321.088H98.1613C98.9413 321.088 99.4213 320.584 99.4213 319.684V313.66H100.453V319.696C100.453 321.136 99.6373 322 98.2213 322H97.5973ZM106.671 315.676H107.691V322H106.719V321.1C106.299 321.688 105.543 322.132 104.607 322.132C102.987 322.132 102.087 321.076 102.087 319.576V315.676H103.107V319.456C103.107 320.524 103.791 321.232 104.871 321.22C105.939 321.22 106.659 320.452 106.671 319.648V315.676ZM112.522 315.544C114.142 315.544 115.09 316.564 115.09 318.136V322H114.07V318.316C114.07 317.14 113.386 316.444 112.258 316.456C111.178 316.456 110.41 317.236 110.398 318.088V322H109.378V315.676H110.338V316.6C110.746 316 111.514 315.544 112.522 315.544Z" fill="#8D8F99"/>
<rect x="139.245" width="0.5" height="332" fill="#EBECF2"/>
<path d="M150.129 322L149.265 319.612H145.737L144.873 322H143.853L146.877 313.66H148.113L151.137 322H150.129ZM146.049 318.772H148.953L147.501 314.752L146.049 318.772ZM156.468 315.676H157.488V322H156.516V321.1C156.096 321.688 155.34 322.132 154.404 322.132C152.784 322.132 151.884 321.076 151.884 319.576V315.676H152.904V319.456C152.904 320.524 153.588 321.232 154.668 321.22C155.736 321.22 156.456 320.452 156.468 319.648V315.676ZM164.275 315.676H165.223V321.172C165.223 323.056 164.011 324.28 161.971 324.28C160.351 324.28 159.355 323.548 158.947 322.36L159.823 322.024C160.135 322.948 160.903 323.416 161.983 323.416C163.399 323.416 164.275 322.588 164.275 321.256V320.632C163.795 321.448 162.967 321.952 161.911 321.952C160.099 321.952 158.791 320.56 158.791 318.748C158.791 316.96 160.111 315.544 161.911 315.544C162.967 315.544 163.795 316.048 164.275 316.852V315.676ZM162.007 321.148C163.303 321.148 164.215 320.164 164.215 318.796C164.215 317.428 163.315 316.444 162.031 316.444C160.759 316.444 159.811 317.464 159.811 318.796C159.811 320.14 160.747 321.148 162.007 321.148Z" fill="#8D8F99"/>
<rect x="185.597" width="0.5" height="332" fill="#EBECF2"/>
<path d="M194.825 322.132C192.437 322.132 190.613 320.32 190.613 317.836C190.613 315.34 192.437 313.528 194.825 313.528C197.213 313.528 199.025 315.34 199.025 317.836C199.025 320.32 197.213 322.132 194.825 322.132ZM194.825 321.16C196.661 321.16 197.981 319.792 197.981 317.836C197.981 315.88 196.673 314.5 194.825 314.5C192.977 314.5 191.657 315.88 191.657 317.836C191.657 319.792 192.989 321.16 194.825 321.16ZM203.262 322.132C201.39 322.132 200.01 320.74 200.01 318.844C200.01 316.972 201.378 315.556 203.25 315.556C204.774 315.556 205.806 316.468 206.13 317.524L205.218 317.884C204.954 317.008 204.234 316.468 203.274 316.468C202.002 316.468 201.042 317.44 201.042 318.844C201.042 320.248 202.002 321.22 203.286 321.22C204.258 321.22 204.99 320.68 205.254 319.804L206.166 320.176C205.842 321.208 204.798 322.132 203.262 322.132ZM209.841 322C208.473 322 207.741 321.184 207.741 319.876V316.552H206.589V315.676H207.249C207.633 315.676 207.813 315.484 207.813 315.1V314.056H208.797V315.676H210.669V316.552H208.761V319.768C208.761 320.62 209.205 321.1 210.021 321.1H210.765V322H209.841Z" fill="#8D8F99"/>
<rect x="231.949" width="0.5" height="332" fill="#EBECF2"/>
<path d="M240.445 313.66C242.809 313.66 244.525 315.304 244.525 317.824C244.525 320.344 242.809 322 240.445 322H237.433V313.66H240.445ZM240.421 321.088C242.197 321.088 243.493 319.84 243.493 317.836C243.493 315.844 242.197 314.572 240.421 314.572H238.453V321.088H240.421ZM246.503 319.216C246.683 320.392 247.607 321.184 248.771 321.184C249.803 321.184 250.379 320.788 250.691 320.056L251.579 320.596C251.111 321.496 250.235 322.144 248.735 322.144C246.791 322.144 245.471 320.728 245.471 318.844C245.471 317.008 246.875 315.532 248.663 315.532C250.571 315.532 251.783 317.032 251.783 318.7C251.783 318.88 251.771 319.096 251.759 319.216H246.503ZM246.515 318.328H250.739C250.583 317.14 249.755 316.42 248.699 316.42C247.631 316.42 246.707 317.128 246.515 318.328ZM255.896 322.132C254.024 322.132 252.644 320.74 252.644 318.844C252.644 316.972 254.012 315.556 255.884 315.556C257.408 315.556 258.44 316.468 258.764 317.524L257.852 317.884C257.588 317.008 256.868 316.468 255.908 316.468C254.636 316.468 253.676 317.44 253.676 318.844C253.676 320.248 254.636 321.22 255.92 321.22C256.892 321.22 257.624 320.68 257.888 319.804L258.799 320.176C258.476 321.208 257.432 322.132 255.896 322.132Z" fill="#8D8F99"/>
</svg>
