<svg width="51" height="50" viewBox="0 0 51 50" fill="none" xmlns="http://www.w3.org/2000/svg">
<g clip-path="url(#clip0_2393_458)">
<path d="M25.3187 49.8793C39.0771 49.8793 50.2305 38.7259 50.2305 24.9674C50.2305 11.209 39.0771 0.055603 25.3187 0.055603C11.5603 0.055603 0.40686 11.209 0.40686 24.9674C0.40686 38.7259 11.5603 49.8793 25.3187 49.8793Z" fill="#F6D738"/>
<path d="M25.3184 46.1103C36.9951 46.1103 46.4609 36.6444 46.4609 24.9678C46.4609 13.2911 36.9951 3.82526 25.3184 3.82526C13.6417 3.82526 4.1759 13.2911 4.1759 24.9678C4.1759 36.6444 13.6417 46.1103 25.3184 46.1103Z" fill="#F3CC30"/>
<path d="M36.3816 6.92151C38.5595 10.32 39.714 14.2731 39.7077 18.3096C39.7077 29.9863 30.2419 39.4521 18.5652 39.4521C14.659 39.4582 10.8283 38.3769 7.50195 36.3292C9.41249 39.3217 12.0465 41.7843 15.1605 43.4895C18.2745 45.1947 21.7681 46.0874 25.3184 46.0853C36.9952 46.0853 46.4609 36.6196 46.4609 24.9428C46.4632 21.3275 45.5376 17.7722 43.7729 14.6169C42.0081 11.4616 39.4632 8.81198 36.3816 6.92151Z" fill="#EDBD31"/>
<path d="M7.87974 26.9027C7.87974 16.595 16.236 8.2388 26.5436 8.2388C29.4034 8.23656 32.2253 8.89265 34.7908 10.1563C37.3562 11.4199 39.5964 13.2571 41.3377 15.5256C39.7022 12.6793 37.3447 10.315 34.5032 8.67134C31.6616 7.02767 28.4367 6.16286 25.154 6.16425C14.8464 6.16425 6.48781 14.5197 6.48781 24.8273C6.48186 28.9435 7.8427 32.9452 10.3568 36.2044C8.7284 33.3752 7.87404 30.167 7.87974 26.9027Z" fill="#F7DB5E"/>
<path d="M27.0637 11.3215V14.0152C28.1449 14.1893 29.0292 14.5466 29.7165 15.0869C30.4038 15.6273 31.0577 16.4564 31.6781 17.5742L28.9986 19.0721C28.192 17.6074 27.1385 16.8751 25.8381 16.8751C25.0315 16.8751 24.3625 17.1134 23.831 17.5899C23.5751 17.8108 23.3711 18.0855 23.2334 18.3943C23.0958 18.7031 23.0279 19.0385 23.0346 19.3765C23.0346 20.0267 23.2499 20.567 23.6804 20.9975C24.1015 21.4197 24.9533 21.9189 26.2359 22.4954C27.179 22.914 28.0961 23.389 28.9821 23.9179C29.7066 24.3625 30.2519 24.7909 30.618 25.2031C31.6527 26.3204 32.1703 27.6715 32.1708 29.2565C32.1708 30.8147 31.7034 32.1892 30.7687 33.3797C29.8439 34.5613 28.607 35.3583 27.0582 35.7704V38.6155H24.6588V35.8513C22.8636 35.5583 21.4939 34.94 20.5497 33.9964C19.6056 33.0528 18.9093 31.596 18.4611 29.626L21.4842 28.9983C21.8969 30.3913 22.4009 31.3852 22.9962 31.9799C23.6192 32.548 24.4483 32.832 25.4834 32.832C26.4909 32.832 27.3339 32.5069 28.0123 31.8567C28.6808 31.216 29.015 30.3869 29.015 29.3695C29.015 28.4624 28.7357 27.7341 28.1771 27.1843C27.893 26.918 27.4746 26.6181 26.9217 26.2843C26.2347 25.8809 25.5259 25.516 24.7985 25.1913C23.02 24.3942 21.8519 23.6618 21.2943 22.9944C20.4051 21.9953 19.9605 20.7998 19.9605 19.4079C19.9541 18.7802 20.0604 18.1565 20.2743 17.5664C20.4841 17.0003 20.7937 16.4765 21.1884 16.0199C21.6097 15.5388 22.1092 15.1324 22.6659 14.8178C23.2908 14.4632 23.961 14.195 24.658 14.0206V11.3215H27.0637Z" fill="#D49A34"/>
</g>
<defs>
<clipPath id="clip0_2393_458">
<rect width="49.8237" height="49.8237" fill="white" transform="translate(0.40686 0.055603)"/>
</clipPath>
</defs>
</svg>
